<svg id="Layer_1" data-name="Layer 1" xmlns="http://www.w3.org/2000/svg" xmlns:xlink="http://www.w3.org/1999/xlink" viewBox="0 0 1080 1080"><defs><style>.cls-1{fill:none;}.cls-2{fill:#fff;}.cls-3{fill:url(#Ailurus_project_pattern_3);}</style><pattern id="Ailurus_project_pattern_3" data-name="Ailurus project pattern 3" width="357.76" height="338.29" patternTransform="translate(4142.82 6745.58) scale(0.31)" patternUnits="userSpaceOnUse" viewBox="0 0 357.76 338.29"><rect class="cls-1" width="357.76" height="338.29"/><path class="cls-2" d="M350.91,429.08a71,71,0,0,1-11.23-21.51c-7.56-24.08-2.58-55.32,20.15-76.8,18.34-17.34,42-30.83,64.51-40.93,0,0-23.47,23.09-16.8,47.44,4.21,15.41,10.58,30,7.88,47.46a54.35,54.35,0,0,1-1.4,6.4l0,0a.08.08,0,0,1,0,.07,87.12,87.12,0,0,1-4.92,13c-6.19,11-20.07,26.06-50.73,33.79l-.22-6.59.15-6.66.36-6.7c.25-2.26.55-4.51.74-6.76l1-6.77c.47-2.25.89-4.5,1.3-6.77a202,202,0,0,1,8.07-27.3,108.67,108.67,0,0,0-12.33,27c-.65,2.34-1.3,4.68-1.89,7l-1.43,7c-.37,2.34-.63,4.68-.95,7l-.38,4.94A76.85,76.85,0,0,0,362,462.4l-1.69.93A77.4,77.4,0,0,1,350.91,429.08Z"/><path class="cls-2" d="M200.75,417.24A66.92,66.92,0,0,1,179,424.49c-23.58,3.45-51.95-5.87-68.57-30.26C97,374.55,88,350.48,82,328c0,0,18,25.33,41.71,22.75,15-1.62,29.58-5.37,45.41-.25a51.27,51.27,0,0,1,5.75,2.27h0s0,0,.06,0a81.4,81.4,0,0,1,11.43,6.53c9.31,7.41,21.29,22.6,23.91,52.34l-6.17-.79-6.19-1.13-6.19-1.34c-2.07-.58-4.12-1.19-6.19-1.7l-6.16-1.94c-2-.78-4.06-1.51-6.12-2.23A191.76,191.76,0,0,1,149,390.92a102.53,102.53,0,0,0,23.35,15.53c2.08,1,4.16,1.91,6.25,2.81l6.36,2.39c2.12.69,4.26,1.28,6.41,1.93l4.55,1.1a72.58,72.58,0,0,0,37.55-2.83l.62,1.72A73.19,73.19,0,0,1,200.75,417.24Z"/><path class="cls-2" d="M-6.85,429.08a71,71,0,0,1-11.23-21.51c-7.56-24.08-2.58-55.32,20.15-76.8,18.34-17.34,42-30.83,64.51-40.93,0,0-23.47,23.09-16.8,47.44,4.21,15.41,10.58,30,7.87,47.46a50.61,50.61,0,0,1-1.4,6.4v0a.06.06,0,0,1,0,.07,87.07,87.07,0,0,1-4.91,13c-6.19,11-20.07,26.06-50.74,33.79l-.21-6.59.15-6.66.36-6.7c.25-2.26.55-4.51.74-6.76l1-6.77c.48-2.25.9-4.5,1.31-6.77A202,202,0,0,1,12,370.52a108.67,108.67,0,0,0-12.33,27c-.65,2.34-1.3,4.68-1.89,7l-1.44,7c-.36,2.34-.62,4.68-.94,7L-5,423.59A76.85,76.85,0,0,0,4.28,462.4l-1.69.93A77.4,77.4,0,0,1-6.85,429.08Z"/><path class="cls-2" d="M287.49,323.72a56.42,56.42,0,0,0-16.51,10,60.23,60.23,0,0,0-17.88,60.68c5.37,19.38,16,38.31,27.15,54.48,0,0-6.5-25.42,8.07-39.28,9.22-8.78,19.59-16.14,24.91-29.13a41.08,41.08,0,0,0,1.68-4.94v0s0,0,0,0a69.32,69.32,0,0,0,2-10.93c.3-10-3-26-20.69-43.94l-2.86,4.41-2.64,4.61-2.51,4.72c-.76,1.64-1.48,3.29-2.28,4.91l-2.11,5c-.6,1.74-1.24,3.44-1.9,5.16a161.64,161.64,0,0,0-5.73,21.94A86.17,86.17,0,0,1,279,347.91c.52-1.87,1-3.73,1.59-5.57l1.93-5.39c.71-1.75,1.5-3.45,2.25-5.19l1.78-3.53a61.19,61.19,0,0,1,22.29-22.65l-.77-1.34A61.87,61.87,0,0,0,287.49,323.72Z"/><path class="cls-2" d="M350.91,90.79a71.11,71.11,0,0,1-11.23-21.51C332.12,45.2,337.1,14,359.83-7.52c18.34-17.34,42-30.83,64.51-40.94,0,0-23.47,23.1-16.8,47.45,4.21,15.41,10.58,30,7.88,47.46a54.35,54.35,0,0,1-1.4,6.4l0,0a.07.07,0,0,1,0,.06A86.31,86.31,0,0,1,409.09,66C402.9,77,389,92,358.36,99.78l-.22-6.59.15-6.67.36-6.7c.25-2.25.55-4.5.74-6.75l1-6.77c.47-2.25.89-4.5,1.3-6.77a202,202,0,0,1,8.07-27.3,108.67,108.67,0,0,0-12.33,27c-.65,2.34-1.3,4.68-1.89,7l-1.43,7c-.37,2.34-.63,4.68-.95,7l-.38,4.94A76.79,76.79,0,0,0,362,124.1l-1.69.94A77.43,77.43,0,0,1,350.91,90.79Z"/><path class="cls-2" d="M200.75,79A67.4,67.4,0,0,1,179,86.2c-23.58,3.45-51.95-5.87-68.57-30.26C97,36.25,88,12.19,82-10.31c0,0,18,25.34,41.71,22.76,15-1.62,29.58-5.37,45.41-.25a49.37,49.37,0,0,1,5.75,2.26l0,0a0,0,0,0,1,.06,0A82.34,82.34,0,0,1,186.33,21c9.31,7.42,21.29,22.6,23.91,52.34l-6.17-.78-6.19-1.14-6.19-1.34c-2.07-.57-4.12-1.18-6.19-1.69l-6.16-1.94c-2-.78-4.06-1.51-6.12-2.23A193.15,193.15,0,0,1,149,52.63a102.53,102.53,0,0,0,23.35,15.53c2.08,1,4.16,1.91,6.25,2.81L185,73.36c2.12.69,4.26,1.28,6.41,1.93l4.55,1.1a72.58,72.58,0,0,0,37.55-2.83l.62,1.71A73.07,73.07,0,0,1,200.75,79Z"/><path class="cls-2" d="M-6.85,90.79A71.11,71.11,0,0,1-18.08,69.28C-25.64,45.2-20.66,14,2.07-7.52c18.34-17.34,42-30.83,64.51-40.94,0,0-23.47,23.1-16.8,47.45C54,14.4,60.36,29,57.65,46.45a50.61,50.61,0,0,1-1.4,6.4v0s0,0,0,.06A86.26,86.26,0,0,1,51.33,66C45.14,77,31.26,92,.59,99.78L.38,93.19l.15-6.67.36-6.7c.25-2.25.55-4.5.74-6.75l1-6.77c.48-2.25.9-4.5,1.31-6.77A202,202,0,0,1,12,32.23a108.67,108.67,0,0,0-12.33,27c-.65,2.34-1.3,4.68-1.89,7l-1.44,7c-.36,2.34-.62,4.68-.94,7L-5,85.3a76.79,76.79,0,0,0,9.26,38.8L2.59,125A77.43,77.43,0,0,1-6.85,90.79Z"/><path class="cls-2" d="M287.49-14.57A56.6,56.6,0,0,0,271-4.53,60.25,60.25,0,0,0,253.1,56.16c5.37,19.37,16,38.31,27.15,54.47,0,0-6.5-25.41,8.07-39.27,9.22-8.78,19.59-16.14,24.91-29.13a41.08,41.08,0,0,0,1.68-4.94v0s0,0,0,0a69.32,69.32,0,0,0,2-10.93c.3-10-3-26-20.69-43.94l-2.86,4.41-2.64,4.61L288.26-3.9C287.5-2.26,286.78-.61,286,1l-2.11,5c-.6,1.73-1.24,3.44-1.9,5.16a161.64,161.64,0,0,0-5.73,21.94A86.17,86.17,0,0,1,279,9.62c.52-1.87,1-3.73,1.59-5.57l1.93-5.39c.71-1.75,1.5-3.45,2.25-5.19l1.78-3.53A61.19,61.19,0,0,1,308.8-32.71L308-34A61.77,61.77,0,0,0,287.49-14.57Z"/><path class="cls-2" d="M172.19,143.6a71,71,0,0,0,12.95,20.52c17,18.65,46.52,30,76.52,21.2,24.21-7.14,47.76-20.81,67.81-35.19,0,0-31.76,8.68-49.45-9.33-11.21-11.38-20.66-24.25-37.07-30.67a52.6,52.6,0,0,0-6.24-2h0a.13.13,0,0,0-.06,0,86.56,86.56,0,0,0-13.75-2.31c-12.61-.17-32.61,4.24-54.72,26.87l5.59,3.5,5.84,3.22,6,3c2.07.92,4.17,1.79,6.21,2.76l6.35,2.54c2.19.72,4.34,1.5,6.51,2.28a201.58,201.58,0,0,0,27.65,6.75,108.36,108.36,0,0,1-29.56-2.94c-2.35-.61-4.7-1.22-7-1.88l-6.82-2.31c-2.2-.86-4.35-1.81-6.55-2.72l-4.47-2.15A76.89,76.89,0,0,1,149,117.23l-1.66,1A77.44,77.44,0,0,0,172.19,143.6Z"/><path class="cls-2" d="M55.81,136.43A61.49,61.49,0,0,0,53.3,157.3a65.54,65.54,0,0,0,39.88,56.08c20.18,8.43,43.49,12.1,64.84,13.39,0,0-26.11-11.52-28.17-33.3-1.32-13.79-.64-27.6-8.17-40.89a44.53,44.53,0,0,0-3.1-4.75v0a.06.06,0,0,0,0-.05,75.75,75.75,0,0,0-8-9.07c-8.39-7-24.26-15-51.49-11.83l1.85,5.41,2.16,5.35,2.35,5.32c.9,1.75,1.82,3.48,2.67,5.25L71,153.37c1.08,1.68,2.11,3.38,3.14,5.09A175.38,175.38,0,0,0,89,178.11,94,94,0,0,1,70.76,160c-1.25-1.7-2.49-3.39-3.69-5.1l-3.32-5.28c-1-1.78-1.94-3.59-2.92-5.41L59,140.3A66.5,66.5,0,0,1,54.61,106L53,105.77A67.19,67.19,0,0,0,55.81,136.43Z"/><path class="cls-2" d="M120.21,317a61.5,61.5,0,0,0,20.87,2.59A65.54,65.54,0,0,0,197.31,280c8.51-20.15,12.28-43.45,13.65-64.79,0,0-11.63,26.06-33.41,28-13.79,1.26-27.6.53-40.92,8a46.25,46.25,0,0,0-4.77,3.08v0h0a75.73,75.73,0,0,0-9.11,7.95c-7,8.36-15.06,24.2-12,51.44l5.42-1.83,5.36-2.14,5.33-2.33c1.76-.89,3.49-1.81,5.26-2.64l5.19-2.87c1.69-1.07,3.39-2.09,5.11-3.11A177.56,177.56,0,0,0,162,284a94,94,0,0,1-18.21,18.2c-1.7,1.24-3.4,2.48-5.11,3.67l-5.29,3.3c-1.79,1-3.61,1.93-5.42,2.9l-3.9,1.81a66.52,66.52,0,0,1-34.31,4.26l-.24,1.66A67.07,67.07,0,0,0,120.21,317Z"/><path class="cls-2" d="M276.1,273.92a71.14,71.14,0,0,0,23.71,5.14c25.22.92,54-12.15,68.74-39.75,11.87-22.27,18.62-48.65,22.41-73,0,0-16.07,28.75-41.31,28.75-16,0-31.77-2.25-47.85,5A52.32,52.32,0,0,0,296,203h0a.07.07,0,0,0-.06,0,85.26,85.26,0,0,0-11.29,8.19c-9,8.88-19.82,26.24-19.17,57.87l6.41-1.54,6.39-1.91,6.37-2.12c2.1-.84,4.19-1.71,6.31-2.49l6.27-2.76c2-1.05,4.11-2.05,6.19-3.05a202.63,202.63,0,0,0,24.19-15,108.57,108.57,0,0,1-22.81,19c-2.09,1.25-4.17,2.49-6.26,3.68l-6.42,3.25c-2.16,1-4.35,1.84-6.54,2.77l-4.66,1.68A76.84,76.84,0,0,1,241,272l-.46,1.88A77.53,77.53,0,0,0,276.1,273.92Z"/><path class="cls-2" d="M-81.66,273.92a71.14,71.14,0,0,0,23.71,5.14c25.22.92,54-12.15,68.74-39.75,11.87-22.27,18.62-48.65,22.41-73,0,0-16.07,28.75-41.31,28.75-16,0-31.77-2.25-47.86,5a54.16,54.16,0,0,0-5.8,3.05h0a.08.08,0,0,0-.06,0,85.83,85.83,0,0,0-11.28,8.19c-9,8.88-19.83,26.24-19.18,57.87l6.42-1.54,6.39-1.91,6.36-2.12c2.11-.84,4.2-1.71,6.32-2.49l6.27-2.76c2-1.05,4.1-2.05,6.18-3.05a201.05,201.05,0,0,0,24.19-15,108.26,108.26,0,0,1-22.8,19c-2.09,1.25-4.17,2.49-6.27,3.68l-6.41,3.25c-2.16,1-4.35,1.84-6.54,2.77l-4.67,1.68A76.83,76.83,0,0,1-116.74,272l-.45,1.88A77.53,77.53,0,0,0-81.66,273.92Z"/></pattern></defs><rect class="cls-3" width="1080" height="1080"/></svg>