<svg id="Layer_1" data-name="Layer 1" xmlns="http://www.w3.org/2000/svg" viewBox="0 0 1080 383.3"><defs><style>.cls-1{fill:#59e959;}.cls-2{fill:#fff;}</style></defs><path class="cls-1" d="M228.91,191.68a53.72,53.72,0,0,1-12,9.1c-11.08,5.83-22.49,5.16-33.91,6.06-18,1.41-27.85,22-27.85,22,1.29-16.92,4.59-35.37,11.77-51.29,8.91-19.73,28.74-30.3,46.82-31.06a53.11,53.11,0,0,1,19.13,2.78L229,150.6l-4.58,2c-1.51.75-3,1.48-4.51,2.26l-4.39,2.58q-2.16,1.41-4.27,2.88a76.75,76.75,0,0,0-15.2,14.31A146.62,146.62,0,0,1,212.5,163c1.43-.8,2.85-1.6,4.26-2.44l4.31-2.24c1.47-.66,2.91-1.37,4.36-2l4.43-1.82,4.45-1.66,4.51-1.41,4.53-1.22c1.51-.31,3-.66,4.56-1a114.35,114.35,0,0,1,18.46-2,53.4,53.4,0,0,0-18.5-1.13c-1.57.19-3.15.4-4.73.65l-4.63,1A231.91,231.91,0,0,1,260,100.36a746,746,0,0,1-79,3.92c-26.44-.09-51.11-1.59-73.77-3.92,5.68,16.23,16.44,51.75,10.51,96.69A228.4,228.4,0,0,1,87.22,284c26.82-2,55.43-3,85.65-2.74,23.4.2,45.8,1.18,67.09,2.74-11.88-34.63-13.6-64.09-11.57-86.93C228.55,195.25,228.72,193.45,228.91,191.68Z"/><path class="cls-2" d="M319.13,112.35H298.89a4.05,4.05,0,0,1-4-4.89l3-14.36a4.06,4.06,0,0,1,4-3.22h67.85a4,4,0,0,1,4,4.9l-3,14.36a4,4,0,0,1-4,3.21H344.91l-14.52,68.17a4.06,4.06,0,0,1-4,3.21H308.94a4.05,4.05,0,0,1-4-4.9Z"/><path class="cls-2" d="M386.52,87.24h16.83a4,4,0,0,1,4,4.9l-6.89,32.37a31.39,31.39,0,0,1,10.84-8.66,30.26,30.26,0,0,1,13.22-3,22.85,22.85,0,0,1,8.13,1.25,11.93,11.93,0,0,1,7.67,8.4,22.5,22.5,0,0,1,.72,5.68,38.36,38.36,0,0,1-.33,5,48.23,48.23,0,0,1-.86,4.76l-9,42.52a4,4,0,0,1-4,3.22H410.06a4.06,4.06,0,0,1-4-4.9l7.29-34.23a18.64,18.64,0,0,0,.39-3.56c0-2.21-.5-3.79-1.52-4.77a5.44,5.44,0,0,0-3.9-1.45,6.14,6.14,0,0,0-2.57.73,19.63,19.63,0,0,0-3.24,2,21.9,21.9,0,0,0-3.37,3.11,24.9,24.9,0,0,0-3,4.1l-7.64,35.78a4.05,4.05,0,0,1-4,3.21H367.76a4.06,4.06,0,0,1-4-4.9l18.77-88.38A4.05,4.05,0,0,1,386.52,87.24Z"/><path class="cls-2" d="M471.85,185.05a34.51,34.51,0,0,1-12.3-2.11A27.08,27.08,0,0,1,450.1,177a26.08,26.08,0,0,1-6-9.26A33.18,33.18,0,0,1,442,155.57a39.53,39.53,0,0,1,3.57-16.65,43,43,0,0,1,9.78-13.62,45.73,45.73,0,0,1,14.61-9.12,48.5,48.5,0,0,1,17.91-3.3q12.69,0,19.76,5.35t7.07,14.87q0,11.78-10.77,17.72T472,156.76h-3.84q0,5.69,1.92,8t6.54,2.31A14.25,14.25,0,0,0,488.06,162a4,4,0,0,1,4.24-1.16l11.26,3.62a4.08,4.08,0,0,1,1.66,6.73,40.61,40.61,0,0,1-3,2.78,49.19,49.19,0,0,1-9.12,6,48.06,48.06,0,0,1-10.38,3.83A45.58,45.58,0,0,1,471.85,185.05Zm11.5-54.33a10.29,10.29,0,0,0-7.08,3,22.48,22.48,0,0,0-5.35,8h.93q10.17,0,14.2-1.26t4-4.56a4.52,4.52,0,0,0-1.85-3.7A7.71,7.71,0,0,0,483.35,130.72Z"/><path class="cls-2" d="M586.36,89.88H604a4.06,4.06,0,0,1,4,3.61l9.54,85.73a4.06,4.06,0,0,1-4,4.51H595.72a4.06,4.06,0,0,1-4.05-3.85l-.73-14.53H568.47l-7.5,16a4.05,4.05,0,0,1-3.67,2.34H540.35a4.05,4.05,0,0,1-3.57-6l46-85.74A4.06,4.06,0,0,1,586.36,89.88Zm4.18,58.29-1-29.08-13.62,29.08Z"/><path class="cls-2" d="M641.67,114.2h16.82a4.06,4.06,0,0,1,4,4.9l-13.08,61.42a4,4,0,0,1-4,3.21H628.6a4.06,4.06,0,0,1-4-4.9l13.07-61.42A4.07,4.07,0,0,1,641.67,114.2Zm8.14-27h10.64a7.07,7.07,0,0,1,6.92,8.55l-1.49,7a7.07,7.07,0,0,1-6.92,5.61H648.32a7.08,7.08,0,0,1-6.92-8.55l1.48-7A7.08,7.08,0,0,1,649.81,87.24Z"/><path class="cls-2" d="M681,185.05q-8.33,0-12.56-3.64t-4.23-10.5c0-1,.05-1.94.14-2.91a19.36,19.36,0,0,1,.52-3l15.85-74.51a4,4,0,0,1,4-3.21h16.82a4.06,4.06,0,0,1,4,4.9l-13.63,64a12.35,12.35,0,0,0-.4,2.91q0,5,4.76,5a12,12,0,0,0,3.31-.53,17.4,17.4,0,0,0,3.56-1.45l-.68,15.88a4,4,0,0,1-2.53,3.62,54.88,54.88,0,0,1-8.15,2.31A54,54,0,0,1,681,185.05Z"/><path class="cls-2" d="M810.46,114.2h14.68a4.06,4.06,0,0,1,4,4.93l-1.83,8.29a40,40,0,0,1,11-10.78,22.42,22.42,0,0,1,12-3.76h2a2.84,2.84,0,0,1,.92.13l-4.1,19.48a4.1,4.1,0,0,1-3.85,3.21,48.33,48.33,0,0,0-9.5,1.5,20.89,20.89,0,0,0-8.58,4.39,3.94,3.94,0,0,0-1.2,2.17l-7.78,36.75a4,4,0,0,1-4,3.22H797.39a4.06,4.06,0,0,1-4-4.9l13.08-61.42A4.05,4.05,0,0,1,810.46,114.2Z"/><path class="cls-2" d="M865.87,185.05q-7.93,0-12.09-4.17t-4.17-12.22a43,43,0,0,1,1.06-8.73l9.09-42.52a4.06,4.06,0,0,1,4-3.21h16.7a4.06,4.06,0,0,1,4,4.9L877,154.25a18.65,18.65,0,0,0-.39,3.57q0,6.08,5,6.08a12.71,12.71,0,0,0,5.15-1.32q2.91-1.32,6.74-5.82l8.44-39.35a4.05,4.05,0,0,1,4-3.21h16.83a4.06,4.06,0,0,1,4,4.9L918.87,156a17.32,17.32,0,0,0-.39,3.17c0,2.2,1.18,3.35,3.56,3.44l-3.93,18.5a4.1,4.1,0,0,1-3.34,3.16,49.32,49.32,0,0,1-8.06.81,18,18,0,0,1-9.32-2.18c-2.42-1.46-3.63-3.94-3.63-7.47q0-.66.06-1.26c0-.39.11-.81.2-1.25a36.15,36.15,0,0,1-12.88,9.32A40,40,0,0,1,865.87,185.05Z"/><path class="cls-2" d="M727.09,185.05q-7.94,0-12.09-4.17t-4.17-12.22a43.68,43.68,0,0,1,1.06-8.73L721,117.41a4.07,4.07,0,0,1,4-3.21h16.7a4.06,4.06,0,0,1,4,4.9l-7.42,35.15a18,18,0,0,0-.4,3.57q0,6.08,5,6.08a12.76,12.76,0,0,0,5.16-1.32q2.89-1.32,6.74-5.82l8.43-39.35a4.07,4.07,0,0,1,4-3.21H784a4.06,4.06,0,0,1,4,4.9L780.1,156a16.63,16.63,0,0,0-.4,3.17q0,3.3,3.57,3.44l-3.93,18.5a4.1,4.1,0,0,1-3.35,3.16,49.21,49.21,0,0,1-8,.81,17.93,17.93,0,0,1-9.32-2.18c-2.43-1.46-3.64-3.94-3.64-7.47a10.19,10.19,0,0,1,.07-1.26c0-.39.11-.81.19-1.25a36.06,36.06,0,0,1-12.88,9.32A40,40,0,0,1,727.09,185.05Z"/><path class="cls-2" d="M955.36,185.05a45.32,45.32,0,0,1-16.46-3,30.21,30.21,0,0,1-9.8-5.93,4.07,4.07,0,0,1-.43-5.47l9.5-12.32a48,48,0,0,0,10.51,6.74,23.74,23.74,0,0,0,9.85,2.38,5.15,5.15,0,0,0,3.7-1.06,3.94,3.94,0,0,0,1.06-2.91,3.67,3.67,0,0,0-1.59-2.77,20,20,0,0,0-5.81-2.78,84.13,84.13,0,0,1-9.65-3.7,35,35,0,0,1-6.55-3.83,13,13,0,0,1-3.77-4.36,12,12,0,0,1-1.18-5.42,23.93,23.93,0,0,1,2.57-10.91,28.18,28.18,0,0,1,7.07-8.86,34.63,34.63,0,0,1,10.45-5.94,36.39,36.39,0,0,1,12.69-2.18,43.41,43.41,0,0,1,13.48,2q6.07,2,11.76,8.06L982.63,135a4.07,4.07,0,0,1-5.45.71,51.13,51.13,0,0,0-6.1-3.75,15.94,15.94,0,0,0-7.13-1.85,5.32,5.32,0,0,0-3.57,1.13,3.85,3.85,0,0,0-1.32,3.1,3.27,3.27,0,0,0,1.78,2.84,30.57,30.57,0,0,0,6.41,2.58q11.5,3.43,16.33,7.54a13.24,13.24,0,0,1,4.82,10.57A25.6,25.6,0,0,1,986,168.93a24.55,24.55,0,0,1-6.74,8.59,31.82,31.82,0,0,1-10.44,5.55A43.41,43.41,0,0,1,955.36,185.05Z"/><path class="cls-2" d="M301.26,219.05a4.07,4.07,0,0,1,4-3.21h29a17.93,17.93,0,0,1,8.47,1.94,20.21,20.21,0,0,1,6.31,5.09,22.57,22.57,0,0,1,4,7.26,26.15,26.15,0,0,1,1.38,8.41A28.41,28.41,0,0,1,351.94,250a35.07,35.07,0,0,1-6.75,10.19,35.93,35.93,0,0,1-9.91,7.31,26.67,26.67,0,0,1-12.07,2.82h-11.3l-4.41,20.92a4.06,4.06,0,0,1-4,3.22H290.24a4.06,4.06,0,0,1-4-4.9Zm24.49,32.45a4.41,4.41,0,0,0,2.16-.67,6.39,6.39,0,0,0,2.11-2.05,13.36,13.36,0,0,0,1.6-3.49,16.67,16.67,0,0,0,.67-5c0-2.14-.39-3.62-1.17-4.43a3.32,3.32,0,0,0-2.38-1.22h-9.19L316,251.5Z"/><path class="cls-2" d="M366.13,236.21h10.94a4.06,4.06,0,0,1,4,4.93l-1.35,6.15a33.24,33.24,0,0,1,9.24-9,18.81,18.81,0,0,1,10-3.15h1.66a2.27,2.27,0,0,1,.77.11l-3.33,15.83a4,4,0,0,1-3.6,3.2,39.7,39.7,0,0,0-7.69,1.23,16.8,16.8,0,0,0-8,4.43l-6.62,31.33a4.06,4.06,0,0,1-4,3.22H355.46a4.06,4.06,0,0,1-4-4.9l10.67-50.14A4.07,4.07,0,0,1,366.13,236.21Z"/><path class="cls-2" d="M423.08,295.56a28.77,28.77,0,0,1-11-1.93,22,22,0,0,1-7.81-5.26,21.18,21.18,0,0,1-4.6-7.75,29.13,29.13,0,0,1-1.49-9.3,36.44,36.44,0,0,1,10.07-24.92,36.93,36.93,0,0,1,11.85-8.19,38.57,38.57,0,0,1,15.84-3.1,28.61,28.61,0,0,1,11,1.94,21.93,21.93,0,0,1,7.81,5.25,21.23,21.23,0,0,1,4.6,7.7,28.92,28.92,0,0,1,1.49,9.36,36.14,36.14,0,0,1-10.13,24.91,37.44,37.44,0,0,1-11.9,8.19A38.34,38.34,0,0,1,423.08,295.56Zm3.77-17.71a9.56,9.56,0,0,0,4.65-1.22,12.71,12.71,0,0,0,3.87-3.32,15.81,15.81,0,0,0,2.61-5,21,21,0,0,0,.94-6.37,11,11,0,0,0-1.78-6.64,5.79,5.79,0,0,0-5-2.44,9.56,9.56,0,0,0-4.65,1.22,12.73,12.73,0,0,0-3.87,3.32,16,16,0,0,0-2.61,5,21,21,0,0,0-.94,6.37,11.08,11.08,0,0,0,1.77,6.64A5.82,5.82,0,0,0,426.85,277.85Z"/><path class="cls-2" d="M454.93,317.6a21.82,21.82,0,0,1-8.25-1.55,18.62,18.62,0,0,1-2.92-1.49,4.09,4.09,0,0,1-1-6.05l9.1-11.17a4.55,4.55,0,0,0,4.2,2.21q3.66,0,4.77-4.76l11.72-55.36a4,4,0,0,1,4-3.22h12.86a4.06,4.06,0,0,1,4,4.9l-11,52a36.11,36.11,0,0,1-3.77,9.91,31.18,31.18,0,0,1-6.14,7.75,26.31,26.31,0,0,1-8.09,5A25.18,25.18,0,0,1,454.93,317.6Zm26.42-104H494.1a4,4,0,0,1,4,4.89l-2,9.61a4.06,4.06,0,0,1-4,3.21H479.31a4,4,0,0,1-4-4.9l2-9.6A4,4,0,0,1,481.35,213.63Z"/><path class="cls-2" d="M520.15,295.56a28.73,28.73,0,0,1-10.3-1.77,22.64,22.64,0,0,1-7.92-5,21.77,21.77,0,0,1-5-7.75,27.86,27.86,0,0,1-1.77-10.19,33.2,33.2,0,0,1,3-13.95,35.73,35.73,0,0,1,8.2-11.4,37.86,37.86,0,0,1,12.23-7.64,40.5,40.5,0,0,1,15-2.77q10.63,0,16.56,4.48T556,252.05q0,9.85-9,14.84t-26.74,5h-3.21q0,4.77,1.6,6.7t5.48,1.93a12,12,0,0,0,10.85-6l12.83,4.14A2.68,2.68,0,0,1,549,283a32,32,0,0,1-3.42,3.25,40.94,40.94,0,0,1-7.65,5,40.27,40.27,0,0,1-8.69,3.21A38.53,38.53,0,0,1,520.15,295.56Zm9.63-45.51a8.63,8.63,0,0,0-5.93,2.5,18.91,18.91,0,0,0-4.48,6.7h.78q8.52,0,11.9-1.06t3.37-3.82a3.79,3.79,0,0,0-1.54-3.1A6.49,6.49,0,0,0,529.78,250.05Z"/><path class="cls-2" d="M582.71,295.56a28.09,28.09,0,0,1-11-2,22.59,22.59,0,0,1-7.81-5.31,22,22,0,0,1-4.65-7.76,28.32,28.32,0,0,1-1.55-9.41,34.61,34.61,0,0,1,2.66-13.23A35.25,35.25,0,0,1,568,246.35a38.6,38.6,0,0,1,12-8.14,38,38,0,0,1,15.61-3.1q10.31,0,16.17,4.43a21.29,21.29,0,0,1,6.84,8.56,2.63,2.63,0,0,1-1.66,3.6l-19.14,5.44c-1.18-2.88-3.2-4.32-6.08-4.32a9.32,9.32,0,0,0-4.49,1.17,12.91,12.91,0,0,0-3.88,3.26,16.41,16.41,0,0,0-2.71,5,20.2,20.2,0,0,0-1,6.48,10.81,10.81,0,0,0,1.82,6.64,5.83,5.83,0,0,0,4.93,2.44q4.21,0,7.86-4.32l15.6,5.05a2.62,2.62,0,0,1,1.11,4.24,40,40,0,0,1-10.29,8.32A35.5,35.5,0,0,1,582.71,295.56Z"/><path class="cls-2" d="M637.52,295.68a24.17,24.17,0,0,1-5.54-.61A12.18,12.18,0,0,1,627.5,293a9.62,9.62,0,0,1-3-3.66,12.72,12.72,0,0,1-1-5.53c0-.81,0-1.62.11-2.44a19.85,19.85,0,0,1,.44-2.66l5.65-26.68h-4.35a1.94,1.94,0,0,1-1.9-2.35l2.59-12a2,2,0,0,1,1.9-1.53h5.19l3.19-15.05a4.06,4.06,0,0,1,4-3.22H653a4.06,4.06,0,0,1,4,4.9l-2.84,13.37h8.24a2,2,0,0,1,1.9,2.34l-2.51,12a1.94,1.94,0,0,1-1.9,1.54H650.7l-4.1,19.27c-.07.37-.13.71-.17,1.05s0,.65,0,.94q0,3.21,3.32,3.21a14.48,14.48,0,0,0,3.38-.5,31.78,31.78,0,0,0,4.26-1.38V288.4a4,4,0,0,1-2.67,3.83q-3.6,1.25-7.35,2.17A40.8,40.8,0,0,1,637.52,295.68Z"/></svg>