<svg id="Layer_1" data-name="Layer 1" xmlns="http://www.w3.org/2000/svg" viewBox="0 0 1080 1080"><defs><style>.cls-1{fill:#333;}</style></defs><path class="cls-1" d="M288.13,531.31a43.53,43.53,0,0,1-9.76,7.36c-9,4.72-18.21,4.18-27.46,4.91-14.6,1.14-22.54,17.81-22.54,17.81,1-13.7,3.71-28.63,9.52-41.52,7.22-16,23.27-24.54,37.91-25.15A42.94,42.94,0,0,1,291.29,497L288.23,498l-3.72,1.61c-1.21.62-2.44,1.2-3.65,1.84l-3.55,2.09c-1.16.75-2.31,1.54-3.45,2.32a61.91,61.91,0,0,0-12.31,11.59,120.08,120.08,0,0,1,13.29-9.41c1.16-.64,2.31-1.29,3.45-2l3.49-1.81c1.19-.53,2.36-1.11,3.53-1.67l3.58-1.47,3.61-1.34,3.65-1.14,3.67-1c1.22-.25,2.45-.53,3.69-.82a92.56,92.56,0,0,1,14.95-1.65,43.3,43.3,0,0,0-15-.92c-1.28.16-2.55.33-3.84.53l-3.74.78a187.63,187.63,0,0,1,17.39-38.24,603.75,603.75,0,0,1-63.94,3.17c-21.4-.07-41.38-1.28-59.73-3.17a169,169,0,0,1,8.51,78.28A184.91,184.91,0,0,1,173.41,606c21.71-1.59,44.88-2.44,69.35-2.22,18.94.17,37.07,1,54.32,2.22-9.63-28-11-51.89-9.37-70.39C287.84,534.2,288,532.74,288.13,531.31Z"/><path class="cls-1" d="M361.18,467.08H344.79a3.28,3.28,0,0,1-3.21-4L344,451.49a3.28,3.28,0,0,1,3.21-2.61h54.93a3.28,3.28,0,0,1,3.21,4l-2.46,11.62a3.28,3.28,0,0,1-3.21,2.61H382.05l-11.76,55.19a3.29,3.29,0,0,1-3.21,2.6H352.93a3.29,3.29,0,0,1-3.22-4Z"/><path class="cls-1" d="M415.74,446.74h13.62a3.28,3.28,0,0,1,3.21,4L427,476.92a25.48,25.48,0,0,1,8.78-7,24.52,24.52,0,0,1,10.7-2.4,18.28,18.28,0,0,1,6.58,1,9.59,9.59,0,0,1,6.21,6.8,18.13,18.13,0,0,1,.59,4.6,30.76,30.76,0,0,1-.27,4.06,38.06,38.06,0,0,1-.69,3.86l-7.27,34.42a3.28,3.28,0,0,1-3.21,2.61H434.8a3.28,3.28,0,0,1-3.21-4l5.89-27.71a14.4,14.4,0,0,0,.32-2.89,5.14,5.14,0,0,0-1.23-3.85,4.35,4.35,0,0,0-3.15-1.18,5.06,5.06,0,0,0-2.09.59,16.79,16.79,0,0,0-2.62,1.6A17.57,17.57,0,0,0,426,490a20.46,20.46,0,0,0-2.41,3.32l-6.19,29a3.28,3.28,0,0,1-3.21,2.6H400.55a3.28,3.28,0,0,1-3.21-4l15.19-71.56A3.29,3.29,0,0,1,415.74,446.74Z"/><path class="cls-1" d="M484.82,525.94a27.78,27.78,0,0,1-9.95-1.71,21.89,21.89,0,0,1-7.65-4.82,21.08,21.08,0,0,1-4.87-7.49,26.92,26.92,0,0,1-1.71-9.85,32.09,32.09,0,0,1,2.88-13.48,34.9,34.9,0,0,1,7.93-11,36.72,36.72,0,0,1,11.82-7.38,39.31,39.31,0,0,1,14.5-2.67q10.28,0,16,4.33a14.24,14.24,0,0,1,5.73,12q0,9.53-8.72,14.34T484.93,503h-3.1c0,3.06.51,5.22,1.55,6.47s2.8,1.87,5.29,1.87a11.55,11.55,0,0,0,9.28-4.12,3.22,3.22,0,0,1,3.44-.94l9.11,2.93a3.3,3.3,0,0,1,1.34,5.45,33.17,33.17,0,0,1-2.46,2.25,39.91,39.91,0,0,1-15.78,7.92A37.13,37.13,0,0,1,484.82,525.94Zm9.31-44a8.32,8.32,0,0,0-5.72,2.41,18.28,18.28,0,0,0-4.34,6.48h.75q8.25,0,11.51-1t3.26-3.7a3.66,3.66,0,0,0-1.5-3A6.2,6.2,0,0,0,494.13,482Z"/><path class="cls-1" d="M577.54,448.88h14.25a3.29,3.29,0,0,1,3.27,2.92l7.72,69.42a3.28,3.28,0,0,1-3.26,3.65h-14.4a3.28,3.28,0,0,1-3.28-3.12L581.25,510H563.06L557,523a3.28,3.28,0,0,1-3,1.89H540.29A3.28,3.28,0,0,1,537.4,520l37.25-69.42A3.29,3.29,0,0,1,577.54,448.88Zm3.39,47.2-.86-23.55-11,23.55Z"/><path class="cls-1" d="M622.32,468.58h13.62a3.29,3.29,0,0,1,3.22,4l-10.59,49.73a3.29,3.29,0,0,1-3.21,2.6H611.74a3.28,3.28,0,0,1-3.21-4l10.58-49.72A3.28,3.28,0,0,1,622.32,468.58Zm6.59-21.84h8.62a5.73,5.73,0,0,1,5.6,6.92l-1.2,5.67a5.74,5.74,0,0,1-5.61,4.54h-8.61a5.73,5.73,0,0,1-5.61-6.93l1.21-5.66A5.72,5.72,0,0,1,628.91,446.74Z"/><path class="cls-1" d="M654.13,525.94q-6.75,0-10.17-3c-2.28-2-3.42-4.79-3.42-8.5,0-.79,0-1.57.1-2.36a16.75,16.75,0,0,1,.43-2.46l12.83-60.33a3.29,3.29,0,0,1,3.21-2.6h13.62a3.29,3.29,0,0,1,3.21,4l-11,51.79a10,10,0,0,0-.32,2.35c0,2.72,1.29,4.07,3.86,4.07a9.7,9.7,0,0,0,2.67-.43,14.71,14.71,0,0,0,2.89-1.17l-.55,12.85a3.25,3.25,0,0,1-2.05,2.93,46.66,46.66,0,0,1-15.27,2.84Z"/><path class="cls-1" d="M759,468.58h11.88a3.28,3.28,0,0,1,3.21,4l-1.48,6.72a32.31,32.31,0,0,1,8.94-8.73,18.12,18.12,0,0,1,9.68-3h1.61a2.48,2.48,0,0,1,.75.1l-3.32,15.77a3.33,3.33,0,0,1-3.12,2.6,38.72,38.72,0,0,0-7.69,1.21,17,17,0,0,0-7,3.56,3.24,3.24,0,0,0-1,1.76l-6.3,29.75a3.28,3.28,0,0,1-3.21,2.61H748.4a3.29,3.29,0,0,1-3.21-4l10.59-49.72A3.28,3.28,0,0,1,759,468.58Z"/><path class="cls-1" d="M803.85,525.94q-6.42,0-9.79-3.37t-3.38-9.9a35.16,35.16,0,0,1,.86-7.07l7.36-34.43a3.3,3.3,0,0,1,3.22-2.59h13.52a3.28,3.28,0,0,1,3.21,4l-6,28.46a14.47,14.47,0,0,0-.32,2.89q0,4.92,4.06,4.92a10.2,10.2,0,0,0,4.18-1.07,17.47,17.47,0,0,0,5.45-4.7l6.84-31.87a3.28,3.28,0,0,1,3.21-2.59h13.62a3.29,3.29,0,0,1,3.22,4l-6.34,29.85a14.18,14.18,0,0,0-.32,2.57c0,1.78,1,2.72,2.89,2.78l-3.18,15a3.33,3.33,0,0,1-2.71,2.57,40.54,40.54,0,0,1-6.52.65,14.47,14.47,0,0,1-7.55-1.77q-2.94-1.77-2.94-6c0-.36,0-.7.05-1s.09-.66.16-1a29.21,29.21,0,0,1-10.43,7.55A32.42,32.42,0,0,1,803.85,525.94Z"/><path class="cls-1" d="M691.49,525.94q-6.43,0-9.8-3.37t-3.37-9.9a35.16,35.16,0,0,1,.86-7.07l7.36-34.43a3.29,3.29,0,0,1,3.21-2.59h13.53a3.28,3.28,0,0,1,3.21,4l-6,28.46a14.47,14.47,0,0,0-.32,2.89q0,4.92,4.06,4.92a10.23,10.23,0,0,0,4.18-1.07,17.7,17.7,0,0,0,5.45-4.7l6.83-31.87a3.29,3.29,0,0,1,3.21-2.59h13.63a3.27,3.27,0,0,1,3.21,4l-6.33,29.85a14.18,14.18,0,0,0-.32,2.57c0,1.78,1,2.72,2.89,2.78l-3.18,15a3.34,3.34,0,0,1-2.71,2.57,40.64,40.64,0,0,1-6.52.65,14.47,14.47,0,0,1-7.55-1.77q-2.94-1.77-2.94-6c0-.36,0-.7,0-1s.09-.66.16-1a29.29,29.29,0,0,1-10.43,7.55A32.42,32.42,0,0,1,691.49,525.94Z"/><path class="cls-1" d="M876.3,525.94A36.69,36.69,0,0,1,863,523.53a24.65,24.65,0,0,1-7.94-4.81,3.31,3.31,0,0,1-.35-4.43l7.7-10a39,39,0,0,0,8.51,5.46,19.32,19.32,0,0,0,8,1.92,4.19,4.19,0,0,0,3-.85,3.19,3.19,0,0,0,.85-2.36,3,3,0,0,0-1.28-2.24,16.19,16.19,0,0,0-4.71-2.25,69.61,69.61,0,0,1-7.81-3,28.54,28.54,0,0,1-5.3-3.1,10.4,10.4,0,0,1-3-3.53,9.74,9.74,0,0,1-1-4.39,19.3,19.3,0,0,1,2.09-8.83,22.46,22.46,0,0,1,5.72-7.17,28.09,28.09,0,0,1,8.46-4.82,29.75,29.75,0,0,1,10.27-1.76,35.17,35.17,0,0,1,10.92,1.6,23.14,23.14,0,0,1,9.52,6.53l-8.2,9.84A3.31,3.31,0,0,1,894,486a40,40,0,0,0-4.93-3,13,13,0,0,0-5.78-1.49,4.3,4.3,0,0,0-2.89.91,3.12,3.12,0,0,0-1.07,2.51,2.65,2.65,0,0,0,1.45,2.3,24.07,24.07,0,0,0,5.19,2.09q9.3,2.79,13.21,6.1a10.7,10.7,0,0,1,3.91,8.56,20.66,20.66,0,0,1-1.93,9,19.93,19.93,0,0,1-5.45,7,26.06,26.06,0,0,1-8.46,4.49A35.07,35.07,0,0,1,876.3,525.94Z"/><path class="cls-1" d="M346.71,553.47a3.28,3.28,0,0,1,3.21-2.6h23.52a14.55,14.55,0,0,1,6.86,1.57,16.3,16.3,0,0,1,5.11,4.12,18.5,18.5,0,0,1,3.23,5.87,21.43,21.43,0,0,1,1.12,6.82,23,23,0,0,1-2,9.27,28.13,28.13,0,0,1-5.47,8.25,28.54,28.54,0,0,1-8,5.92,21.5,21.5,0,0,1-9.77,2.29h-9.15l-3.57,16.94a3.29,3.29,0,0,1-3.22,2.6H337.78a3.28,3.28,0,0,1-3.21-4Zm19.83,26.27a3.56,3.56,0,0,0,1.75-.54,5.34,5.34,0,0,0,1.7-1.66,10.81,10.81,0,0,0,1.3-2.83,13.33,13.33,0,0,0,.54-4,5.28,5.28,0,0,0-.94-3.59,2.72,2.72,0,0,0-1.93-1h-7.44l-2.87,13.63Z"/><path class="cls-1" d="M399.23,567.36h8.86a3.28,3.28,0,0,1,3.2,4l-1.09,5a26.92,26.92,0,0,1,7.49-7.31,15.18,15.18,0,0,1,8.11-2.55h1.34a2,2,0,0,1,.63.09l-2.7,12.81a3.22,3.22,0,0,1-2.91,2.59,32.58,32.58,0,0,0-6.22,1,13.66,13.66,0,0,0-6.46,3.59l-5.36,25.37a3.29,3.29,0,0,1-3.22,2.6H390.59a3.29,3.29,0,0,1-3.22-4L396,570A3.29,3.29,0,0,1,399.23,567.36Z"/><path class="cls-1" d="M445.34,615.42a23.42,23.42,0,0,1-8.92-1.57,17.8,17.8,0,0,1-6.32-4.26,17.18,17.18,0,0,1-3.72-6.28,23.19,23.19,0,0,1-1.21-7.52,29.54,29.54,0,0,1,8.16-20.18,29.87,29.87,0,0,1,9.59-6.63,31.17,31.17,0,0,1,12.82-2.51,23.23,23.23,0,0,1,8.92,1.57A17.54,17.54,0,0,1,471,572.3a16.91,16.91,0,0,1,3.72,6.22,23.25,23.25,0,0,1,1.21,7.58,28.94,28.94,0,0,1-2.1,10.76,28.63,28.63,0,0,1-6.1,9.41,30.34,30.34,0,0,1-9.64,6.64A31.07,31.07,0,0,1,445.34,615.42Zm3.05-14.35a7.65,7.65,0,0,0,3.76-1,10.17,10.17,0,0,0,3.14-2.69,12.91,12.91,0,0,0,2.11-4.08,16.72,16.72,0,0,0,.76-5.16,9,9,0,0,0-1.43-5.37,4.7,4.7,0,0,0-4-2,7.66,7.66,0,0,0-3.76,1,10.28,10.28,0,0,0-3.14,2.69,12.7,12.7,0,0,0-2.11,4.08,16.7,16.7,0,0,0-.76,5.15,9,9,0,0,0,1.43,5.38A4.7,4.7,0,0,0,448.39,601.07Z"/><path class="cls-1" d="M471.13,633.26a17.53,17.53,0,0,1-6.68-1.26,15.48,15.48,0,0,1-2.37-1.2,3.31,3.31,0,0,1-.83-4.9l7.37-9a3.66,3.66,0,0,0,3.4,1.8q3,0,3.86-3.86L485.37,570a3.28,3.28,0,0,1,3.21-2.61H499a3.29,3.29,0,0,1,3.21,4l-8.93,42.11a28.94,28.94,0,0,1-3,8,25.3,25.3,0,0,1-5,6.28,21.35,21.35,0,0,1-6.55,4.07A20.33,20.33,0,0,1,471.13,633.26Zm21.39-84.19h10.32a3.29,3.29,0,0,1,3.22,4l-1.66,7.78a3.28,3.28,0,0,1-3.21,2.6H490.87a3.28,3.28,0,0,1-3.21-4l1.65-7.77A3.28,3.28,0,0,1,492.52,549.07Z"/><path class="cls-1" d="M523.93,615.42a23.18,23.18,0,0,1-8.34-1.44,18.32,18.32,0,0,1-6.41-4,17.69,17.69,0,0,1-4.08-6.28,22.65,22.65,0,0,1-1.43-8.24,26.89,26.89,0,0,1,2.42-11.3,29,29,0,0,1,6.63-9.23,30.79,30.79,0,0,1,9.91-6.19,32.78,32.78,0,0,1,12.15-2.24q8.61,0,13.4,3.63a11.93,11.93,0,0,1,4.8,10.08q0,8-7.31,12t-21.65,4h-2.6q0,3.85,1.3,5.43t4.44,1.56a9.77,9.77,0,0,0,8.78-4.84l10.39,3.35a2.17,2.17,0,0,1,.95,3.52,26.85,26.85,0,0,1-2.78,2.64,33.18,33.18,0,0,1-6.18,4,32.52,32.52,0,0,1-7,2.6A30.8,30.8,0,0,1,523.93,615.42Zm7.8-36.85a7,7,0,0,0-4.8,2A15.33,15.33,0,0,0,523.3,586h.63c4.6,0,7.82-.28,9.64-.85s2.73-1.6,2.73-3.09a3.06,3.06,0,0,0-1.25-2.51A5.23,5.23,0,0,0,531.73,578.57Z"/><path class="cls-1" d="M574.58,615.42a22.69,22.69,0,0,1-8.92-1.62,18.1,18.1,0,0,1-6.32-4.3,17.46,17.46,0,0,1-3.76-6.28,22.77,22.77,0,0,1-1.26-7.62,28.09,28.09,0,0,1,2.15-10.71,28.61,28.61,0,0,1,6.19-9.32,31.36,31.36,0,0,1,9.68-6.59A30.72,30.72,0,0,1,585,566.47q8.32,0,13.08,3.58a17.2,17.2,0,0,1,5.54,6.94,2.12,2.12,0,0,1-1.34,2.91l-15.49,4.41a5,5,0,0,0-4.93-3.5,7.68,7.68,0,0,0-3.64.94,10.39,10.39,0,0,0-3.13,2.65,13,13,0,0,0-2.2,4.08,16.14,16.14,0,0,0-.81,5.24,8.81,8.81,0,0,0,1.48,5.38,4.72,4.72,0,0,0,4,2q3.4,0,6.37-3.49l12.62,4.08a2.12,2.12,0,0,1,.9,3.44,32.27,32.27,0,0,1-8.32,6.73A28.8,28.8,0,0,1,574.58,615.42Z"/><path class="cls-1" d="M619,615.51a19.21,19.21,0,0,1-4.48-.5,9.87,9.87,0,0,1-3.63-1.65,7.84,7.84,0,0,1-2.42-3,10.41,10.41,0,0,1-.85-4.48q0-1,.09-2a18,18,0,0,1,.35-2.15l4.58-21.61h-3.52a1.57,1.57,0,0,1-1.54-1.9l2.1-9.68a1.58,1.58,0,0,1,1.53-1.24h4.21L618,555.17a3.29,3.29,0,0,1,3.21-2.6H631.5a3.28,3.28,0,0,1,3.21,4l-2.3,10.83h6.68a1.57,1.57,0,0,1,1.53,1.9l-2,9.68a1.57,1.57,0,0,1-1.54,1.24h-7.42l-3.31,15.61a7,7,0,0,0-.14.84,7.09,7.09,0,0,0,0,.77c0,1.73.9,2.6,2.7,2.6a12.6,12.6,0,0,0,2.73-.4,25.16,25.16,0,0,0,3.45-1.13v11.15a3.26,3.26,0,0,1-2.16,3.09q-2.93,1-6,1.77A33.49,33.49,0,0,1,619,615.51Z"/></svg>