<svg id="Layer_1" data-name="Layer 1" xmlns="http://www.w3.org/2000/svg" viewBox="0 0 1080 469.85"><defs><style>.cls-1{fill:#59ea59;}</style></defs><path class="cls-1" d="M147.33,137.72H122.52a5,5,0,0,1-4.87-6l3.73-17.6a5,5,0,0,1,4.87-4h83.16a5,5,0,0,1,4.86,6l-3.72,17.6a5,5,0,0,1-4.87,3.94H178.93l-17.8,83.56a5,5,0,0,1-4.86,3.93H134.84a5,5,0,0,1-4.86-6Z"/><path class="cls-1" d="M229.94,106.93h20.62a5,5,0,0,1,4.86,6L247,152.63A38.33,38.33,0,0,1,260.26,142a37.08,37.08,0,0,1,16.21-3.64,27.72,27.72,0,0,1,10,1.54,14.6,14.6,0,0,1,9.4,10.28,27.64,27.64,0,0,1,.89,7,47.21,47.21,0,0,1-.41,6.16c-.27,2.05-.62,4-1.05,5.83l-11,52.12a5,5,0,0,1-4.86,3.94H258.79a5,5,0,0,1-4.86-6l8.92-42a22,22,0,0,0,.49-4.37c0-2.7-.62-4.64-1.86-5.84a6.67,6.67,0,0,0-4.78-1.78,7.55,7.55,0,0,0-3.16.9,24.72,24.72,0,0,0-4,2.43,26.2,26.2,0,0,0-4.13,3.8,31.13,31.13,0,0,0-3.65,5l-9.36,43.86a5,5,0,0,1-4.87,3.93H206.94a5,5,0,0,1-4.87-6l23-108.34A5,5,0,0,1,229.94,106.93Z"/><path class="cls-1" d="M334.52,226.83a42,42,0,0,1-15.06-2.59A33.17,33.17,0,0,1,307.87,217a31.9,31.9,0,0,1-7.37-11.34,40.7,40.7,0,0,1-2.59-14.91,48.41,48.41,0,0,1,4.37-20.41,52.65,52.65,0,0,1,12-16.69,55.62,55.62,0,0,1,17.91-11.18,59.33,59.33,0,0,1,21.95-4q15.56,0,24.22,6.56T387,163.16q0,14.42-13.2,21.71t-39.13,7.29H330q0,7,2.35,9.8t8,2.84a17.48,17.48,0,0,0,14-6.24,4.87,4.87,0,0,1,5.2-1.43l13.8,4.45a5,5,0,0,1,2,8.24,48.69,48.69,0,0,1-3.72,3.41,61.09,61.09,0,0,1-11.18,7.29,59,59,0,0,1-12.72,4.69A55.93,55.93,0,0,1,334.52,226.83Zm14.1-66.59a12.6,12.6,0,0,0-8.67,3.65,27.61,27.61,0,0,0-6.56,9.8h1.13q12.48,0,17.42-1.54c3.3-1,4.94-2.89,4.94-5.59a5.54,5.54,0,0,0-2.26-4.54A9.44,9.44,0,0,0,348.62,160.24Z"/><path class="cls-1" d="M474.9,110.17h21.58a5,5,0,0,1,4.94,4.43l11.69,105.09a5,5,0,0,1-4.94,5.52h-21.8a5,5,0,0,1-5-4.72l-.9-17.8H453l-9.19,19.66a5,5,0,0,1-4.51,2.86H418.5a5,5,0,0,1-4.38-7.32L470.51,112.8A5,5,0,0,1,474.9,110.17ZM480,181.63,478.73,146,462,181.63Z"/><path class="cls-1" d="M542.7,140h20.62a5,5,0,0,1,4.86,6l-16,75.28a5,5,0,0,1-4.86,3.93H526.67a5,5,0,0,1-4.86-6l16-75.29A5,5,0,0,1,542.7,140Zm10-33.06h13a8.68,8.68,0,0,1,8.49,10.48L572.38,126a8.68,8.68,0,0,1-8.49,6.87h-13a8.67,8.67,0,0,1-8.49-10.48l1.82-8.57A8.68,8.68,0,0,1,552.67,106.93Z"/><path class="cls-1" d="M590.85,226.83q-10.22,0-15.4-4.45t-5.18-12.88c0-1.19.05-2.38.16-3.57a24.38,24.38,0,0,1,.65-3.73l19.42-91.33a5,5,0,0,1,4.86-3.94H616a5,5,0,0,1,4.87,6l-16.71,78.41a15,15,0,0,0-.48,3.56q0,6.17,5.83,6.16a14.62,14.62,0,0,0,4-.65,21.45,21.45,0,0,0,4.37-1.78l-.83,19.47a4.91,4.91,0,0,1-3.1,4.43,67,67,0,0,1-10,2.84A66,66,0,0,1,590.85,226.83Z"/><path class="cls-1" d="M749.6,140h18a5,5,0,0,1,4.85,6l-2.23,10.16A48.62,48.62,0,0,1,783.74,143a27.51,27.51,0,0,1,14.66-4.61h2.43a3.57,3.57,0,0,1,1.14.16l-5,23.88a5.06,5.06,0,0,1-4.72,3.94,57.29,57.29,0,0,0-11.64,1.83,25.4,25.4,0,0,0-10.52,5.38,5,5,0,0,0-1.48,2.66l-9.53,45.05a5,5,0,0,1-4.86,3.94H733.58a5,5,0,0,1-4.87-6l16-75.29A5,5,0,0,1,749.6,140Z"/><path class="cls-1" d="M817.52,226.83c-6.49,0-11.42-1.7-14.83-5.1s-5.1-8.4-5.1-15a53.21,53.21,0,0,1,1.29-10.69L810,143.92a5,5,0,0,1,4.86-3.93h20.48a5,5,0,0,1,4.86,6l-9.1,43.09a22.12,22.12,0,0,0-.49,4.38q0,7.44,6.16,7.45a15.64,15.64,0,0,0,6.32-1.62q3.55-1.62,8.26-7.13l10.34-48.24a5,5,0,0,1,4.86-3.93h20.63a5,5,0,0,1,4.87,6l-9.59,45.2a21.26,21.26,0,0,0-.49,3.89q0,4,4.38,4.21L881.56,222a5,5,0,0,1-4.1,3.89,61.62,61.62,0,0,1-9.88,1c-4.64,0-8.45-.88-11.42-2.67s-4.46-4.83-4.46-9.15a12.51,12.51,0,0,1,.09-1.54c.05-.49.13-1,.24-1.54a44.43,44.43,0,0,1-15.8,11.42A49,49,0,0,1,817.52,226.83Z"/><path class="cls-1" d="M647.41,226.83q-9.74,0-14.83-5.1t-5.1-15a53.21,53.21,0,0,1,1.29-10.69l11.15-52.13a5,5,0,0,1,4.86-3.93h20.47a5,5,0,0,1,4.87,6L661,189.08a22.12,22.12,0,0,0-.49,4.38q0,7.44,6.16,7.45a15.56,15.56,0,0,0,6.31-1.62q3.57-1.62,8.27-7.13l10.34-48.24a5,5,0,0,1,4.86-3.93H717.1a5,5,0,0,1,4.86,6l-9.58,45.2a20.41,20.41,0,0,0-.49,3.89q0,4,4.38,4.21L711.45,222a5,5,0,0,1-4.1,3.89,61.62,61.62,0,0,1-9.88,1c-4.64,0-8.45-.88-11.42-2.67s-4.46-4.83-4.46-9.15a14.94,14.94,0,0,1,.08-1.54c.06-.49.14-1,.25-1.54a44.52,44.52,0,0,1-15.8,11.42A49,49,0,0,1,647.41,226.83Z"/><path class="cls-1" d="M927.21,226.83A55.7,55.7,0,0,1,907,223.19a37.18,37.18,0,0,1-12-7.28,5,5,0,0,1-.53-6.71l11.65-15.1A58.58,58.58,0,0,0,919,202.37a29.25,29.25,0,0,0,12.07,2.91c2.16,0,3.67-.43,4.54-1.29a4.82,4.82,0,0,0,1.29-3.57A4.49,4.49,0,0,0,935,197a24.31,24.31,0,0,0-7.13-3.4A106.15,106.15,0,0,1,916,189.08a43.12,43.12,0,0,1-8-4.7,15.89,15.89,0,0,1-4.62-5.34,14.71,14.71,0,0,1-1.45-6.65A29.08,29.08,0,0,1,905.1,159a34.19,34.19,0,0,1,8.66-10.86,42.39,42.39,0,0,1,12.8-7.29,44.94,44.94,0,0,1,15.56-2.67,53.18,53.18,0,0,1,16.53,2.43q7.44,2.43,14.42,9.88l-12.42,14.9a5,5,0,0,1-6.68.87,61.74,61.74,0,0,0-7.48-4.59,19.55,19.55,0,0,0-8.75-2.27,6.52,6.52,0,0,0-4.37,1.38,4.72,4.72,0,0,0-1.62,3.8,4,4,0,0,0,2.19,3.49,37.34,37.34,0,0,0,7.85,3.16q14.1,4.22,20,9.24a16.18,16.18,0,0,1,5.92,13,31.35,31.35,0,0,1-2.92,13.61,30.07,30.07,0,0,1-8.26,10.53,39,39,0,0,1-12.8,6.8A53.13,53.13,0,0,1,927.21,226.83Z"/><path class="cls-1" d="M125.43,268.51a5,5,0,0,1,4.86-3.93H165.9A22.12,22.12,0,0,1,176.28,267,24.67,24.67,0,0,1,184,273.2a27.8,27.8,0,0,1,4.88,8.89,32,32,0,0,1,1.7,10.31,34.91,34.91,0,0,1-3,14.05,43.17,43.17,0,0,1-8.28,12.49,43.71,43.71,0,0,1-12.15,9,32.76,32.76,0,0,1-14.8,3.46H138.48L133.07,357A5,5,0,0,1,128.2,361H111.91a5,5,0,0,1-4.87-6Zm30,39.77a5.41,5.41,0,0,0,2.65-.81,8.06,8.06,0,0,0,2.58-2.51,16.25,16.25,0,0,0,2-4.28,20.46,20.46,0,0,0,.81-6.11q0-3.93-1.42-5.43a4.1,4.1,0,0,0-2.92-1.49H147.85l-4.35,20.63Z"/><path class="cls-1" d="M204.94,289.55h13.41a5,5,0,0,1,4.85,6l-1.65,7.53a40.79,40.79,0,0,1,11.33-11.06,23,23,0,0,1,12.28-3.87h2a3,3,0,0,1,1,.14l-4.08,19.4a4.89,4.89,0,0,1-4.41,3.92,49.25,49.25,0,0,0-9.43,1.52,20.48,20.48,0,0,0-9.77,5.43L212.34,357a5,5,0,0,1-4.87,3.95H191.85a5,5,0,0,1-4.86-6l13.09-61.45A5,5,0,0,1,204.94,289.55Z"/><path class="cls-1" d="M274.75,362.3a35.32,35.32,0,0,1-13.5-2.37,26.93,26.93,0,0,1-9.57-6.45,25.79,25.79,0,0,1-5.63-9.5,35.19,35.19,0,0,1-1.84-11.4A44.64,44.64,0,0,1,256.56,302,45.55,45.55,0,0,1,271.09,292a47.38,47.38,0,0,1,19.41-3.8,35.35,35.35,0,0,1,13.5,2.38,26.67,26.67,0,0,1,9.57,6.45,25.89,25.89,0,0,1,5.63,9.43A35,35,0,0,1,321,317.92a44.34,44.34,0,0,1-12.42,30.54,46.08,46.08,0,0,1-14.59,10A47.09,47.09,0,0,1,274.75,362.3Zm4.62-21.71a11.62,11.62,0,0,0,5.7-1.5,15.55,15.55,0,0,0,4.75-4.07,19.62,19.62,0,0,0,3.19-6.18,25.31,25.31,0,0,0,1.15-7.8q0-5.16-2.17-8.14a7.12,7.12,0,0,0-6.11-3,11.72,11.72,0,0,0-5.7,1.49,15.72,15.72,0,0,0-4.75,4.08,19.36,19.36,0,0,0-3.19,6.17,25.42,25.42,0,0,0-1.15,7.81c0,3.43.72,6.15,2.17,8.14A7.12,7.12,0,0,0,279.37,340.59Z"/><path class="cls-1" d="M313.79,389.31a26.56,26.56,0,0,1-10.11-1.9,22.37,22.37,0,0,1-3.59-1.82,5,5,0,0,1-1.26-7.41L310,364.48a5.57,5.57,0,0,0,5.15,2.71q4.49,0,5.84-5.84l14.37-67.86a5,5,0,0,1,4.86-3.94H356a5,5,0,0,1,4.87,6l-13.52,63.77a44.24,44.24,0,0,1-4.62,12.15,38.24,38.24,0,0,1-7.53,9.5,32.46,32.46,0,0,1-9.91,6.17A30.92,30.92,0,0,1,313.79,389.31Zm32.39-127.45h15.63a5,5,0,0,1,4.86,6l-2.5,11.77a5,5,0,0,1-4.86,3.94H343.68a5,5,0,0,1-4.86-6l2.5-11.78A5,5,0,0,1,346.18,261.86Z"/><path class="cls-1" d="M393.73,362.3a35.15,35.15,0,0,1-12.62-2.17A27.7,27.7,0,0,1,371.4,354a26.53,26.53,0,0,1-6.17-9.5A34.06,34.06,0,0,1,363.06,332a40.66,40.66,0,0,1,3.66-17.1,44,44,0,0,1,10-14,46.72,46.72,0,0,1,15-9.36,49.62,49.62,0,0,1,18.39-3.4q13,0,20.3,5.5T437.71,309q0,12.09-11.06,18.19t-32.78,6.11h-3.94c0,3.89.66,6.62,2,8.21s3.55,2.37,6.72,2.37a14.79,14.79,0,0,0,13.3-7.33l15.73,5.07a3.29,3.29,0,0,1,1.43,5.33,39.82,39.82,0,0,1-4.2,4,50.53,50.53,0,0,1-20,10.05A47.06,47.06,0,0,1,393.73,362.3Zm11.81-55.78a10.55,10.55,0,0,0-7.26,3.05,23.23,23.23,0,0,0-5.5,8.21h1c7,0,11.84-.42,14.6-1.29s4.13-2.42,4.13-4.68a4.63,4.63,0,0,0-1.9-3.8A7.91,7.91,0,0,0,405.54,306.52Z"/><path class="cls-1" d="M470.42,362.3a34.45,34.45,0,0,1-13.51-2.44,27.77,27.77,0,0,1-9.57-6.51,26.84,26.84,0,0,1-5.7-9.51,34.83,34.83,0,0,1-1.9-11.54A42.47,42.47,0,0,1,443,316.08,43.3,43.3,0,0,1,452.37,302,47.55,47.55,0,0,1,467,292a46.68,46.68,0,0,1,19.14-3.8q12.61,0,19.81,5.43a26.19,26.19,0,0,1,8.39,10.5,3.22,3.22,0,0,1-2,4.41l-23.46,6.68q-2.17-5.29-7.47-5.3a11.3,11.3,0,0,0-5.49,1.43,15.69,15.69,0,0,0-4.76,4,19.89,19.89,0,0,0-3.32,6.17,24.74,24.74,0,0,0-1.22,7.95c0,3.43.74,6.15,2.24,8.14a7.15,7.15,0,0,0,6,3q5.16,0,9.64-5.3l19.11,6.19a3.21,3.21,0,0,1,1.36,5.2,49.19,49.19,0,0,1-12.6,10.2A43.67,43.67,0,0,1,470.42,362.3Z"/><path class="cls-1" d="M537.61,362.44a29.06,29.06,0,0,1-6.79-.75,14.81,14.81,0,0,1-5.5-2.51,11.85,11.85,0,0,1-3.66-4.48,15.77,15.77,0,0,1-1.29-6.78,29.92,29.92,0,0,1,.14-3,24.54,24.54,0,0,1,.54-3.26L528,309h-5.33a2.37,2.37,0,0,1-2.32-2.88l3.17-14.66a2.39,2.39,0,0,1,2.33-1.87h6.36l3.91-18.46a5,5,0,0,1,4.87-3.94h15.62a5,5,0,0,1,4.87,6L558,289.55h10.1a2.38,2.38,0,0,1,2.33,2.86l-3.08,14.66A2.37,2.37,0,0,1,565,309H553.76l-5,23.62q-.13.68-.21,1.29c0,.4-.06.79-.06,1.15q0,3.94,4.07,3.94a18.08,18.08,0,0,0,4.14-.61,38.07,38.07,0,0,0,5.22-1.7v16.87a5,5,0,0,1-3.27,4.69c-2.94,1-6,1.91-9,2.67A50.09,50.09,0,0,1,537.61,362.44Z"/></svg>