<svg id="Layer_1" data-name="Layer 1" xmlns="http://www.w3.org/2000/svg" viewBox="0 0 824.47 852.81"><defs><style>.cls-1{fill:#59e959;}</style></defs><path class="cls-1" d="M571.59,425c-10.57,10.07-21.48,19.17-34.47,26-31.68,16.68-64.31,14.76-97,17.34-51.55,4-79.62,62.9-79.62,62.9,3.68-48.37,13.11-101.13,33.65-146.65C419.63,328.18,476.34,298,528,295.77a152.65,152.65,0,0,1,54.71,8l-10.82,3.79-13.12,5.69c-4.3,2.16-8.62,4.23-12.89,6.47l-12.56,7.39c-4.1,2.66-8.16,5.43-12.19,8.21a219.13,219.13,0,0,0-43.47,40.93A416.5,416.5,0,0,1,524.65,343c4.08-2.28,8.15-4.58,12.16-7l12.35-6.4c4.18-1.88,8.32-3.92,12.47-5.88l12.65-5.2L587,313.81l12.88-4,13-3.51c4.34-.88,8.69-1.87,13-2.89a331.59,331.59,0,0,1,52.8-5.84c-16.89-4.25-34.86-5.06-52.89-3.22-4.51.55-9,1.15-13.55,1.86L599,298.94a664.35,664.35,0,0,1,61.43-135.06,2132.48,2132.48,0,0,1-225.82,11.2c-75.6-.26-146.16-4.53-210.95-11.2,16.26,46.42,47,148,30.06,276.48C238.16,558.25,192.22,646,166.41,688.94c76.69-5.59,158.51-8.6,244.92-7.84,66.91.59,131,3.4,191.85,7.84-34-99-38.91-183.26-33.1-248.58C570.54,435.21,571,430.06,571.59,425Z"/></svg>