<svg id="Layer_1" data-name="Layer 1" xmlns="http://www.w3.org/2000/svg" viewBox="0 0 1080 1080"><defs><style>.cls-1,.cls-3{fill:orange;}.cls-2{fill:#333;}.cls-3{font-size:76.17px;font-family:Raleway-BlackItalic, Raleway;font-weight:800;font-style:italic;}.cls-4{letter-spacing:-0.01em;}.cls-5{letter-spacing:0em;}</style></defs><path class="cls-1" d="M266.89,531a45.42,45.42,0,0,1-10.09,7.61c-9.27,4.88-18.82,4.32-28.39,5.07-15.09,1.18-23.3,18.41-23.3,18.41,1.07-14.16,3.83-29.6,9.85-42.92,7.45-16.52,24-25.36,39.18-26a44.55,44.55,0,0,1,16,2.33L267,496.63l-3.84,1.66c-1.26.63-2.52,1.24-3.77,1.9l-3.68,2.16c-1.2.78-2.39,1.59-3.57,2.4a64.34,64.34,0,0,0-12.72,12A121,121,0,0,1,253.15,507c1.19-.67,2.38-1.34,3.56-2.05l3.61-1.87c1.23-.55,2.44-1.15,3.66-1.72l3.7-1.52,3.73-1.39,3.76-1.18,3.8-1c1.27-.26,2.54-.55,3.81-.85a96.63,96.63,0,0,1,15.46-1.71,45,45,0,0,0-15.48-.94c-1.32.16-2.65.34-4,.55l-3.87.8a194.4,194.4,0,0,1,18-39.53,624.25,624.25,0,0,1-66.1,3.28c-22.13-.08-42.78-1.33-61.75-3.28a174.57,174.57,0,0,1,8.8,80.93,191,191,0,0,1-25.56,72.75c22.45-1.63,46.4-2.51,71.69-2.29,19.59.18,38.33,1,56.16,2.29-9.95-29-11.39-53.63-9.69-72.75C266.58,534,266.73,532.49,266.89,531Z"/><path class="cls-2" d="M342.4,464.61H325.46a3.39,3.39,0,0,1-3.32-4.09l2.54-12a3.39,3.39,0,0,1,3.32-2.69h56.79a3.39,3.39,0,0,1,3.32,4.09l-2.54,12a3.4,3.4,0,0,1-3.33,2.69H364l-12.15,57.06a3.38,3.38,0,0,1-3.32,2.69H333.87a3.39,3.39,0,0,1-3.32-4.1Z"/><path class="cls-2" d="M398.81,443.59h14.08a3.39,3.39,0,0,1,3.32,4.1l-5.77,27.1a26.31,26.31,0,0,1,9.07-7.25,25.46,25.46,0,0,1,11.07-2.48,19,19,0,0,1,6.8,1.05,10.37,10.37,0,0,1,4.26,2.87,10.52,10.52,0,0,1,2.16,4.15,19,19,0,0,1,.61,4.76,32.8,32.8,0,0,1-.28,4.2,40.09,40.09,0,0,1-.72,4l-7.51,35.58a3.39,3.39,0,0,1-3.32,2.7H418.51a3.39,3.39,0,0,1-3.32-4.1l6.09-28.65a15.56,15.56,0,0,0,.34-3,5.31,5.31,0,0,0-1.28-4,4.53,4.53,0,0,0-3.26-1.22,5.33,5.33,0,0,0-2.16.61,17.71,17.71,0,0,0-2.71,1.66,18.21,18.21,0,0,0-2.82,2.6,21.83,21.83,0,0,0-2.49,3.43l-6.39,29.95a3.4,3.4,0,0,1-3.32,2.69H383.1a3.39,3.39,0,0,1-3.32-4.1l15.71-74A3.38,3.38,0,0,1,398.81,443.59Z"/><path class="cls-2" d="M470.22,525.46a28.72,28.72,0,0,1-10.29-1.77,22.71,22.71,0,0,1-7.91-5,21.74,21.74,0,0,1-5-7.75,27.8,27.8,0,0,1-1.77-10.18,33.12,33.12,0,0,1,3-13.94,35.81,35.81,0,0,1,8.19-11.39,38.13,38.13,0,0,1,12.23-7.64,40.61,40.61,0,0,1,15-2.76q10.62,0,16.54,4.48A14.73,14.73,0,0,1,506.07,482q0,9.86-9,14.83t-26.72,5h-3.21q0,4.75,1.61,6.69t5.47,1.94a12,12,0,0,0,9.6-4.26,3.31,3.31,0,0,1,3.55-1l9.41,3a3.4,3.4,0,0,1,1.39,5.62,31.47,31.47,0,0,1-2.54,2.33,41.06,41.06,0,0,1-7.63,5,40.47,40.47,0,0,1-8.69,3.21A38.53,38.53,0,0,1,470.22,525.46ZM479.85,480a8.57,8.57,0,0,0-5.92,2.49,18.65,18.65,0,0,0-4.48,6.7h.77q8.52,0,11.89-1.06t3.38-3.81a3.79,3.79,0,0,0-1.55-3.1A6.44,6.44,0,0,0,479.85,480Z"/><path class="cls-2" d="M566.07,445.81H580.8a3.4,3.4,0,0,1,3.38,3l8,71.76a3.4,3.4,0,0,1-3.38,3.77H573.91a3.4,3.4,0,0,1-3.39-3.23L569.9,509H551.09l-6.27,13.42a3.41,3.41,0,0,1-3.08,2H527.56a3.4,3.4,0,0,1-3-5l38.51-71.76A3.38,3.38,0,0,1,566.07,445.81Zm3.5,48.79-.88-24.34-11.4,24.34Z"/><path class="cls-2" d="M612.36,466.16h14.09a3.41,3.41,0,0,1,3.32,4.11l-10.95,51.4a3.39,3.39,0,0,1-3.32,2.69H601.42a3.39,3.39,0,0,1-3.32-4.1L609,468.85A3.4,3.4,0,0,1,612.36,466.16Zm6.81-22.57h8.91a5.92,5.92,0,0,1,5.79,7.16l-1.24,5.85a5.93,5.93,0,0,1-5.79,4.7h-8.91a5.93,5.93,0,0,1-5.8-7.16l1.25-5.85A5.93,5.93,0,0,1,619.17,443.59Z"/><path class="cls-2" d="M645.24,525.46q-7,0-10.51-3t-3.54-8.79c0-.81,0-1.63.11-2.44a17.59,17.59,0,0,1,.44-2.54L645,446.28a3.4,3.4,0,0,1,3.32-2.69H662.4a3.4,3.4,0,0,1,3.32,4.11l-11.41,53.53a10.22,10.22,0,0,0-.33,2.44q0,4.2,4,4.2a10,10,0,0,0,2.76-.44,14.56,14.56,0,0,0,3-1.22l-.57,13.29a3.37,3.37,0,0,1-2.12,3,48.39,48.39,0,0,1-15.79,2.93Z"/><path class="cls-2" d="M753.65,466.16h12.28a3.4,3.4,0,0,1,3.31,4.13l-1.53,6.94a33.33,33.33,0,0,1,9.24-9,18.8,18.8,0,0,1,10-3.15h1.66a2.27,2.27,0,0,1,.77.11L786,481.47a3.44,3.44,0,0,1-3.22,2.69,40,40,0,0,0-8,1.25,17.4,17.4,0,0,0-7.18,3.68,3.34,3.34,0,0,0-1,1.81l-6.5,30.77a3.4,3.4,0,0,1-3.32,2.69H742.7a3.39,3.39,0,0,1-3.32-4.1l10.94-51.41A3.4,3.4,0,0,1,753.65,466.16Z"/><path class="cls-2" d="M800,525.46q-6.64,0-10.12-3.48t-3.49-10.23a36.18,36.18,0,0,1,.88-7.31l7.62-35.59a3.39,3.39,0,0,1,3.32-2.69h14a3.4,3.4,0,0,1,3.32,4.1l-6.22,29.43a15.39,15.39,0,0,0-.33,3q0,5.08,4.2,5.09a10.45,10.45,0,0,0,4.32-1.11,18.2,18.2,0,0,0,5.64-4.86l7.06-32.94a3.4,3.4,0,0,1,3.32-2.69h14.09a3.39,3.39,0,0,1,3.32,4.1l-6.55,30.86a14.38,14.38,0,0,0-.33,2.66c0,1.84,1,2.8,3,2.87l-3.29,15.49a3.45,3.45,0,0,1-2.8,2.65,41.4,41.4,0,0,1-6.75.67,15,15,0,0,1-7.8-1.82c-2-1.22-3-3.3-3-6.25a8.74,8.74,0,0,1,.06-1,10.3,10.3,0,0,1,.16-1.05,30.29,30.29,0,0,1-10.78,7.79A33.35,33.35,0,0,1,800,525.46Z"/><path class="cls-2" d="M683.86,525.46q-6.63,0-10.12-3.48t-3.49-10.23a36.27,36.27,0,0,1,.89-7.31l7.61-35.59a3.4,3.4,0,0,1,3.32-2.69h14a3.39,3.39,0,0,1,3.32,4.1l-6.21,29.43a14.71,14.71,0,0,0-.34,3c0,3.39,1.41,5.09,4.21,5.09a10.45,10.45,0,0,0,4.31-1.11,18.2,18.2,0,0,0,5.64-4.86L714,468.85a3.4,3.4,0,0,1,3.32-2.69h14.09a3.39,3.39,0,0,1,3.32,4.1l-6.54,30.86a13.71,13.71,0,0,0-.34,2.66c0,1.84,1,2.8,3,2.87l-3.29,15.49a3.44,3.44,0,0,1-2.8,2.65,41.29,41.29,0,0,1-6.74.67,15,15,0,0,1-7.8-1.82q-3-1.83-3-6.25a8.74,8.74,0,0,1,.06-1,10.4,10.4,0,0,1,.17-1.05,30.32,30.32,0,0,1-10.79,7.79A33.32,33.32,0,0,1,683.86,525.46Z"/><path class="cls-2" d="M874.92,525.46A37.77,37.77,0,0,1,861.15,523a25.28,25.28,0,0,1-8.21-5,3.41,3.41,0,0,1-.36-4.58l8-10.31a40,40,0,0,0,8.79,5.65,20.08,20.08,0,0,0,8.25,2,4.26,4.26,0,0,0,3.09-.89,3.27,3.27,0,0,0,.89-2.43,3.06,3.06,0,0,0-1.33-2.32,16.64,16.64,0,0,0-4.87-2.33,72.14,72.14,0,0,1-8.07-3.09,30.06,30.06,0,0,1-5.48-3.21,10.75,10.75,0,0,1-3.15-3.65,9.94,9.94,0,0,1-1-4.54,19.93,19.93,0,0,1,2.16-9.13,23.35,23.35,0,0,1,5.92-7.41,29,29,0,0,1,8.74-5A30.54,30.54,0,0,1,885.1,465a36.11,36.11,0,0,1,11.28,1.66,23.84,23.84,0,0,1,9.85,6.74l-8.48,10.18a3.41,3.41,0,0,1-4.56.59,41.47,41.47,0,0,0-5.11-3.13,13.21,13.21,0,0,0-6-1.55,4.46,4.46,0,0,0-3,.94A3.25,3.25,0,0,0,878,483a2.75,2.75,0,0,0,1.49,2.38,26,26,0,0,0,5.37,2.16q9.61,2.87,13.66,6.3a11.09,11.09,0,0,1,4,8.85,21.43,21.43,0,0,1-2,9.3,20.64,20.64,0,0,1-5.64,7.19,26.66,26.66,0,0,1-8.75,4.64A36.11,36.11,0,0,1,874.92,525.46Z"/><path class="cls-2" d="M327.44,553.92a3.41,3.41,0,0,1,3.32-2.69h24.32a15,15,0,0,1,7.09,1.63,16.87,16.87,0,0,1,5.28,4.26,19.06,19.06,0,0,1,3.34,6.07,21.92,21.92,0,0,1,1.16,7,23.83,23.83,0,0,1-2.09,9.6,29.24,29.24,0,0,1-5.65,8.52,29.63,29.63,0,0,1-8.3,6.12,22.22,22.22,0,0,1-10.1,2.36h-9.45l-3.7,17.51a3.39,3.39,0,0,1-3.32,2.7H318.21a3.39,3.39,0,0,1-3.32-4.1Zm20.5,27.16a3.7,3.7,0,0,0,1.81-.56,5.37,5.37,0,0,0,1.76-1.71,11.35,11.35,0,0,0,1.34-2.92,13.94,13.94,0,0,0,.56-4.17c0-1.79-.32-3-1-3.71a2.81,2.81,0,0,0-2-1h-7.69l-3,14.09Z"/><path class="cls-2" d="M381.74,568.29h9.15a3.4,3.4,0,0,1,3.32,4.12l-1.13,5.15a27.63,27.63,0,0,1,7.74-7.56,15.69,15.69,0,0,1,8.38-2.64h1.39a2.08,2.08,0,0,1,.65.09l-2.79,13.25a3.33,3.33,0,0,1-3,2.68,33.21,33.21,0,0,0-6.43,1,14.09,14.09,0,0,0-6.67,3.71l-5.55,26.23a3.4,3.4,0,0,1-3.32,2.69H372.8a3.39,3.39,0,0,1-3.32-4.1l8.94-42A3.39,3.39,0,0,1,381.74,568.29Z"/><path class="cls-2" d="M429.41,618a24.07,24.07,0,0,1-9.22-1.62,18.34,18.34,0,0,1-6.54-4.4,17.59,17.59,0,0,1-3.84-6.49,24,24,0,0,1-1.26-7.78A30.47,30.47,0,0,1,417,576.82,30.8,30.8,0,0,1,426.9,570a32.35,32.35,0,0,1,13.26-2.6,24.14,24.14,0,0,1,9.22,1.62,18.28,18.28,0,0,1,6.53,4.41,17.71,17.71,0,0,1,3.85,6.44,24.15,24.15,0,0,1,1.25,7.83,29.87,29.87,0,0,1-2.18,11.12,29.53,29.53,0,0,1-6.3,9.73,31.52,31.52,0,0,1-10,6.86A32.1,32.1,0,0,1,429.41,618Zm3.15-14.82a8,8,0,0,0,3.89-1,10.48,10.48,0,0,0,3.24-2.79,13,13,0,0,0,2.18-4.21,17.21,17.21,0,0,0,.79-5.33,9.26,9.26,0,0,0-1.48-5.56,4.86,4.86,0,0,0-4.17-2,8,8,0,0,0-3.9,1,10.81,10.81,0,0,0-3.24,2.78,13.26,13.26,0,0,0-2.18,4.22,17.47,17.47,0,0,0-.79,5.33,9.28,9.28,0,0,0,1.49,5.56A4.85,4.85,0,0,0,432.56,603.14Z"/><path class="cls-2" d="M456.06,636.41a18.26,18.26,0,0,1-6.9-1.3,16.06,16.06,0,0,1-2.45-1.24,3.43,3.43,0,0,1-.86-5.07l7.62-9.35A3.81,3.81,0,0,0,457,621.3q3.06,0,4-4L470.78,571a3.4,3.4,0,0,1,3.32-2.69h10.77a3.4,3.4,0,0,1,3.32,4.1L479,615.92a30,30,0,0,1-3.15,8.3,26.17,26.17,0,0,1-5.14,6.49,21.86,21.86,0,0,1-6.77,4.21A21.08,21.08,0,0,1,456.06,636.41Zm22.12-87h10.67a3.39,3.39,0,0,1,3.32,4.1l-1.71,8a3.39,3.39,0,0,1-3.32,2.69H476.47a3.39,3.39,0,0,1-3.32-4.1l1.71-8A3.39,3.39,0,0,1,478.18,549.38Z"/><path class="cls-2" d="M510.65,618a24,24,0,0,1-8.62-1.48,19,19,0,0,1-6.63-4.17,18.13,18.13,0,0,1-4.21-6.49,23.22,23.22,0,0,1-1.49-8.52,27.73,27.73,0,0,1,2.51-11.68,30,30,0,0,1,6.85-9.55,32.08,32.08,0,0,1,10.24-6.39,33.93,33.93,0,0,1,12.56-2.32q8.89,0,13.86,3.75a12.37,12.37,0,0,1,5,10.43q0,8.25-7.56,12.42t-22.38,4.17h-2.69q0,4,1.35,5.61t4.59,1.62a10.11,10.11,0,0,0,9.08-5l10.74,3.46a2.25,2.25,0,0,1,1,3.64,27.5,27.5,0,0,1-2.86,2.73,34.19,34.19,0,0,1-6.4,4.17,33.41,33.41,0,0,1-7.27,2.69A32.43,32.43,0,0,1,510.65,618Zm8.06-38.09a7.22,7.22,0,0,0-5,2.09,15.85,15.85,0,0,0-3.75,5.61h.65q7.14,0,10-.89c1.89-.58,2.83-1.65,2.83-3.19a3.16,3.16,0,0,0-1.3-2.6A5.39,5.39,0,0,0,518.71,579.87Z"/><path class="cls-2" d="M563,618a23.57,23.57,0,0,1-9.22-1.66,18.94,18.94,0,0,1-6.53-4.45,18.37,18.37,0,0,1-3.9-6.49,23.81,23.81,0,0,1-1.29-7.88,28.94,28.94,0,0,1,2.22-11.07,29.44,29.44,0,0,1,6.4-9.64,32.43,32.43,0,0,1,10-6.81,31.88,31.88,0,0,1,13.08-2.6q8.61,0,13.52,3.71a17.72,17.72,0,0,1,5.73,7.17,2.2,2.2,0,0,1-1.38,3l-16,4.56a5.2,5.2,0,0,0-5.1-3.62,7.76,7.76,0,0,0-3.75,1,10.73,10.73,0,0,0-3.25,2.74,13.46,13.46,0,0,0-2.27,4.21,16.72,16.72,0,0,0-.83,5.43A9.08,9.08,0,0,0,562,601.1a4.88,4.88,0,0,0,4.12,2q3.52,0,6.58-3.62l13.05,4.23a2.19,2.19,0,0,1,.93,3.55,33.52,33.52,0,0,1-8.6,7A29.76,29.76,0,0,1,563,618Z"/><path class="cls-2" d="M608.89,618.06a19.84,19.84,0,0,1-4.63-.51,10,10,0,0,1-3.76-1.72,8,8,0,0,1-2.5-3.06,10.71,10.71,0,0,1-.88-4.63q0-1,.09-2a17.1,17.1,0,0,1,.37-2.22l4.73-22.34h-3.64a1.62,1.62,0,0,1-1.59-2l2.17-10a1.62,1.62,0,0,1,1.59-1.28h4.34l2.68-12.6a3.39,3.39,0,0,1,3.32-2.7h10.67a3.4,3.4,0,0,1,3.32,4.1l-2.38,11.2h6.9a1.62,1.62,0,0,1,1.59,2l-2.1,10a1.63,1.63,0,0,1-1.59,1.29h-7.67l-3.43,16.13c-.06.31-.11.6-.14.88a7.43,7.43,0,0,0-.05.78c0,1.8.93,2.69,2.79,2.69a12.21,12.21,0,0,0,2.82-.41,26.85,26.85,0,0,0,3.57-1.16V612a3.38,3.38,0,0,1-2.24,3.2c-2,.7-4.06,1.3-6.15,1.82A34.16,34.16,0,0,1,608.89,618.06Z"/><text class="cls-3" transform="translate(683.34 615.37)"><tspan class="cls-4">T</tspan><tspan x="45.09" y="0">ra</tspan><tspan class="cls-5" x="125.37" y="0">d</tspan><tspan x="174.19" y="0">e</tspan></text></svg>