<svg id="Layer_1" data-name="Layer 1" xmlns="http://www.w3.org/2000/svg" viewBox="0 0 784.51 273.75"><defs><style>.cls-1{fill:#333;}.cls-2{fill:teal;}</style></defs><path class="cls-1" d="M123,90.2h14.74a3.39,3.39,0,0,1,3.37,3l8,71.76a3.4,3.4,0,0,1-3.38,3.77H130.88a3.4,3.4,0,0,1-3.39-3.23l-.61-12.15H108.07l-6.28,13.42a3.39,3.39,0,0,1-3.07,2H84.53a3.4,3.4,0,0,1-3-5L120.05,92A3.38,3.38,0,0,1,123,90.2Zm3.5,48.79-.88-24.34L114.26,139Z"/><path class="cls-1" d="M169.34,110.55h14.08a3.4,3.4,0,0,1,3.32,4.11l-11,51.4a3.38,3.38,0,0,1-3.32,2.69H158.39a3.39,3.39,0,0,1-3.32-4.1l11-51.41A3.38,3.38,0,0,1,169.34,110.55ZM176.15,88h8.9a5.93,5.93,0,0,1,5.8,7.16L189.6,101a5.92,5.92,0,0,1-5.79,4.7H174.9a5.92,5.92,0,0,1-5.79-7.16l1.24-5.85A5.93,5.93,0,0,1,176.15,88Z"/><path class="cls-1" d="M202.22,169.85q-7,0-10.52-3c-2.36-2-3.54-5-3.54-8.79,0-.81,0-1.62.11-2.44a17.66,17.66,0,0,1,.45-2.54L202,90.67A3.39,3.39,0,0,1,205.3,88h14.07a3.4,3.4,0,0,1,3.32,4.11l-11.4,53.53a10.27,10.27,0,0,0-.34,2.44q0,4.2,4,4.2a10,10,0,0,0,2.76-.44,14.34,14.34,0,0,0,3-1.22l-.57,13.3a3.37,3.37,0,0,1-2.12,3,48.25,48.25,0,0,1-15.78,2.93Z"/><path class="cls-1" d="M310.62,110.55H322.9a3.39,3.39,0,0,1,3.31,4.13l-1.52,6.94a33.19,33.19,0,0,1,9.24-9,18.74,18.74,0,0,1,10-3.15h1.66a2.55,2.55,0,0,1,.77.11l-3.43,16.3a3.44,3.44,0,0,1-3.22,2.69,39.76,39.76,0,0,0-8,1.25,17.34,17.34,0,0,0-7.18,3.68,3.28,3.28,0,0,0-1,1.82l-6.51,30.76a3.39,3.39,0,0,1-3.32,2.69H299.67a3.39,3.39,0,0,1-3.32-4.1l10.95-51.41A3.38,3.38,0,0,1,310.62,110.55Z"/><path class="cls-1" d="M357,169.85q-6.64,0-10.12-3.48c-2.32-2.33-3.49-5.73-3.49-10.23a36.27,36.27,0,0,1,.89-7.31l7.61-35.59a3.39,3.39,0,0,1,3.32-2.69h14a3.4,3.4,0,0,1,3.32,4.1l-6.22,29.43a15.39,15.39,0,0,0-.33,3c0,3.4,1.4,5.09,4.21,5.09a10.58,10.58,0,0,0,4.31-1.1,18.26,18.26,0,0,0,5.64-4.87l7.06-32.94a3.4,3.4,0,0,1,3.32-2.69h14.09a3.39,3.39,0,0,1,3.32,4.1l-6.55,30.86a14.47,14.47,0,0,0-.33,2.66c0,1.84,1,2.8,3,2.88l-3.29,15.48a3.44,3.44,0,0,1-2.8,2.65,41.29,41.29,0,0,1-6.74.67,14.94,14.94,0,0,1-7.8-1.82q-3-1.83-3.05-6.25a8.74,8.74,0,0,1,.06-1.05c0-.34.09-.68.16-1a30.2,30.2,0,0,1-10.78,7.79A33.35,33.35,0,0,1,357,169.85Z"/><path class="cls-1" d="M240.84,169.85q-6.65,0-10.13-3.48c-2.32-2.33-3.48-5.73-3.48-10.23a36.18,36.18,0,0,1,.88-7.31l7.61-35.59a3.4,3.4,0,0,1,3.32-2.69h14a3.39,3.39,0,0,1,3.32,4.1l-6.21,29.43a15.39,15.39,0,0,0-.33,3c0,3.4,1.4,5.09,4.2,5.09a10.58,10.58,0,0,0,4.31-1.1,18.16,18.16,0,0,0,5.65-4.87L271,113.24a3.39,3.39,0,0,1,3.32-2.69h14.08a3.39,3.39,0,0,1,3.32,4.1l-6.54,30.86a14.47,14.47,0,0,0-.33,2.66c0,1.84,1,2.8,3,2.88l-3.29,15.48a3.44,3.44,0,0,1-2.8,2.65,41.29,41.29,0,0,1-6.74.67,15,15,0,0,1-7.8-1.82q-3-1.83-3-6.25c0-.37,0-.72.05-1.05s.09-.68.17-1a30.23,30.23,0,0,1-10.79,7.79A33.3,33.3,0,0,1,240.84,169.85Z"/><path class="cls-1" d="M431.89,169.85a37.77,37.77,0,0,1-13.77-2.49,25.44,25.44,0,0,1-8.21-5,3.42,3.42,0,0,1-.36-4.58l8-10.31a40.3,40.3,0,0,0,8.79,5.64,20.08,20.08,0,0,0,8.25,2,4.26,4.26,0,0,0,3.09-.89,3.26,3.26,0,0,0,.89-2.43,3.06,3.06,0,0,0-1.33-2.32,16.64,16.64,0,0,0-4.87-2.33,72.14,72.14,0,0,1-8.07-3.09,30.06,30.06,0,0,1-5.48-3.21,10.66,10.66,0,0,1-3.15-3.65,9.94,9.94,0,0,1-1-4.54,19.93,19.93,0,0,1,2.16-9.13,23.35,23.35,0,0,1,5.92-7.41,29,29,0,0,1,8.74-5,30.54,30.54,0,0,1,10.62-1.82A36.22,36.22,0,0,1,453.36,111a23.81,23.81,0,0,1,9.84,6.74l-8.48,10.18a3.41,3.41,0,0,1-4.56.59,42.72,42.72,0,0,0-5.1-3.13,13.41,13.41,0,0,0-6-1.55,4.42,4.42,0,0,0-3,.94,3.22,3.22,0,0,0-1.11,2.6,2.77,2.77,0,0,0,1.49,2.38,25.47,25.47,0,0,0,5.37,2.16q9.61,2.88,13.66,6.3a11.09,11.09,0,0,1,4,8.85,21.4,21.4,0,0,1-2,9.3,20.64,20.64,0,0,1-5.64,7.19,26.71,26.71,0,0,1-8.74,4.64A36.22,36.22,0,0,1,431.89,169.85Z"/><path class="cls-2" d="M504,169.24a19.06,19.06,0,0,1-8.76-1.94,20.23,20.23,0,0,1-6.48-5.18,22.77,22.77,0,0,1-4-7.39,27.51,27.51,0,0,1-1.37-8.64,27.88,27.88,0,0,1,2.48-11.28,34.53,34.53,0,0,1,6.85-10.16A35.44,35.44,0,0,1,503,117.26a29.85,29.85,0,0,1,13.07-2.86q7.45,0,12.34,3.24a15,15,0,0,1,6.39,8.57l-13,8.07a8,8,0,0,0-1.18-3.28,7,7,0,0,0-2.13-2.05,8.72,8.72,0,0,0-2.71-1.07,13.81,13.81,0,0,0-2.82-.3,11.58,11.58,0,0,0-6.2,1.67,15.42,15.42,0,0,0-4.54,4.27,20.49,20.49,0,0,0-2.78,5.67,20.21,20.21,0,0,0-.95,5.91,16.65,16.65,0,0,0,.53,4.22,10.68,10.68,0,0,0,1.6,3.51,8,8,0,0,0,2.67,2.36,7.83,7.83,0,0,0,3.81.87,13.6,13.6,0,0,0,2.93-.34,11.89,11.89,0,0,0,3.05-1.14,13.19,13.19,0,0,0,2.82-2.06,12.32,12.32,0,0,0,2.32-3.08l10.59,7.23A20.33,20.33,0,0,1,524.2,162a29.68,29.68,0,0,1-6.25,4,35.11,35.11,0,0,1-7,2.43A31,31,0,0,1,504,169.24Z"/><path class="cls-2" d="M546.48,169.55a14.38,14.38,0,0,1-6-1.19,12.55,12.55,0,0,1-4.46-3.31,14.44,14.44,0,0,1-2.78-5.1,21.2,21.2,0,0,1-1-6.55,27.28,27.28,0,0,1,1.75-9.79,27.69,27.69,0,0,1,4.72-8.11,22.26,22.26,0,0,1,6.9-5.52,17.75,17.75,0,0,1,8.26-2,11,11,0,0,1,6.28,1.75,8.56,8.56,0,0,1,3.55,4.95L565,129h14.55l-5.1,23.77a10,10,0,0,0-.23,1.83c0,1.27.69,1.93,2.06,2l-2.59,12.18a33,33,0,0,1-6.17.77,9.82,9.82,0,0,1-5.41-1.3c-1.32-.86-2-2.39-2-4.57a5.44,5.44,0,0,1,.08-1.14,16.82,16.82,0,0,1-6.36,5.33A17.35,17.35,0,0,1,546.48,169.55ZM553,157.36a6.15,6.15,0,0,0,3.42-1,18.69,18.69,0,0,0,3.51-3.08l1.52-7.16a7.91,7.91,0,0,0-1.87-4.31,4.62,4.62,0,0,0-3.54-1.63,6,6,0,0,0-3.12.91,10.5,10.5,0,0,0-2.74,2.4,11.53,11.53,0,0,0-1.94,3.46,11.77,11.77,0,0,0-.73,4.12,7.05,7.05,0,0,0,1.41,4.61A5,5,0,0,0,553,157.36Z"/><path class="cls-2" d="M588.29,128.72h13.25l-1.67,7.62a23,23,0,0,1,6.36-6.21,12.89,12.89,0,0,1,6.89-2.17h1.14a1.77,1.77,0,0,1,.54.07l-2.75,13a28.26,28.26,0,0,0-7.31.91,11.59,11.59,0,0,0-5.48,3.05l-5,23.76H579.76Z"/><path class="cls-2" d="M624.16,185.77a23.45,23.45,0,0,1-10.16-2,18.19,18.19,0,0,1-6.9-5.71l9.3-7.93a13.07,13.07,0,0,0,4.18,3.47,11.93,11.93,0,0,0,5.79,1.41,12.79,12.79,0,0,0,3.62-.53,9.74,9.74,0,0,0,3.28-1.72,11.28,11.28,0,0,0,2.62-3.08,14.16,14.16,0,0,0,1.68-4.57l.53-2.59a13.38,13.38,0,0,1-5.59,4.72,17,17,0,0,1-7,1.52A12.16,12.16,0,0,1,620,167.6a11.55,11.55,0,0,1-4-3.23,14.07,14.07,0,0,1-2.48-4.92,21.87,21.87,0,0,1-.84-6.2,26.52,26.52,0,0,1,1.83-9.87,26.08,26.08,0,0,1,5-8,23.26,23.26,0,0,1,7.28-5.41,20,20,0,0,1,8.72-2,12.4,12.4,0,0,1,6.74,1.71,9,9,0,0,1,3.77,5l1.29-5.94h12.57L652,165.13a24.84,24.84,0,0,1-3.46,8.53,24.4,24.4,0,0,1-6.14,6.47,28.7,28.7,0,0,1-8.3,4.15A32.59,32.59,0,0,1,624.16,185.77Zm9-28.41a6.41,6.41,0,0,0,3.47-1,16.62,16.62,0,0,0,3.46-3.08l1.53-7.16a7.67,7.67,0,0,0-1.91-4.35,4.71,4.71,0,0,0-3.5-1.59,5.8,5.8,0,0,0-3.09.91,10.46,10.46,0,0,0-2.7,2.44,12.42,12.42,0,0,0-1.94,3.46,11.47,11.47,0,0,0-.73,4.08,7,7,0,0,0,1.45,4.57A4.87,4.87,0,0,0,633.15,157.36Z"/><path class="cls-2" d="M677.4,169.55a19.72,19.72,0,0,1-7.57-1.34,15,15,0,0,1-5.37-3.62,14.46,14.46,0,0,1-3.17-5.33,20,20,0,0,1-1-6.4,25,25,0,0,1,6.93-17.13,25.26,25.26,0,0,1,8.15-5.64A26.59,26.59,0,0,1,686.24,128a19.82,19.82,0,0,1,7.58,1.33,15.1,15.1,0,0,1,5.37,3.62,14.66,14.66,0,0,1,3.16,5.29,19.94,19.94,0,0,1,1,6.44,24.87,24.87,0,0,1-7,17.14,25.9,25.9,0,0,1-8.19,5.63A26.38,26.38,0,0,1,677.4,169.55ZM680,157.36a6.51,6.51,0,0,0,3.2-.84,8.77,8.77,0,0,0,2.67-2.28,10.94,10.94,0,0,0,1.79-3.47,14.26,14.26,0,0,0,.65-4.38,7.65,7.65,0,0,0-1.22-4.57,4,4,0,0,0-3.43-1.67,6.53,6.53,0,0,0-3.2.83,8.91,8.91,0,0,0-2.67,2.29,10.87,10.87,0,0,0-1.78,3.46,14.06,14.06,0,0,0-.65,4.38,7.56,7.56,0,0,0,1.22,4.57A4,4,0,0,0,680,157.36Z"/></svg>