<svg id="Layer_1" data-name="Layer 1" xmlns="http://www.w3.org/2000/svg" viewBox="0 0 1080 1080"><defs><style>.cls-1,.cls-3{fill:teal;}.cls-2{fill:#333;}.cls-3{font-size:76.17px;font-family:Raleway-BlackItalic, Raleway;font-weight:800;font-style:italic;}</style></defs><path class="cls-1" d="M279.6,531a45.19,45.19,0,0,1-10.09,7.61c-9.27,4.88-18.82,4.32-28.38,5.07-15.1,1.18-23.31,18.41-23.31,18.41,1.08-14.16,3.84-29.6,9.85-42.92,7.45-16.52,24.05-25.36,39.19-26a44.49,44.49,0,0,1,16,2.33l-3.17,1.11-3.84,1.66c-1.25.63-2.52,1.24-3.77,1.9l-3.68,2.16c-1.2.78-2.38,1.59-3.57,2.4a64.34,64.34,0,0,0-12.72,12A121.91,121.91,0,0,1,265.86,507c1.2-.67,2.39-1.34,3.56-2.05l3.62-1.87c1.22-.55,2.43-1.15,3.65-1.72l3.7-1.52,3.73-1.39,3.77-1.18,3.79-1c1.27-.26,2.54-.55,3.82-.85A96.38,96.38,0,0,1,311,493.7a44.94,44.94,0,0,0-15.48-.94c-1.32.16-2.64.34-4,.55l-3.87.8a194.4,194.4,0,0,1,18-39.53,624.25,624.25,0,0,1-66.1,3.28c-22.13-.08-42.78-1.33-61.74-3.28a174.6,174.6,0,0,1,8.79,80.93A191.17,191.17,0,0,1,161,608.26c22.44-1.63,46.39-2.51,71.68-2.29,19.59.18,38.33,1,56.16,2.29-10-29-11.39-53.63-9.69-72.75C279.3,534,279.44,532.49,279.6,531Z"/><path class="cls-2" d="M355.11,464.61H338.17a3.39,3.39,0,0,1-3.32-4.09l2.55-12a3.38,3.38,0,0,1,3.32-2.69H397.5a3.39,3.39,0,0,1,3.32,4.09l-2.54,12a3.39,3.39,0,0,1-3.32,2.69H376.69l-12.15,57.06a3.4,3.4,0,0,1-3.32,2.69H346.58a3.4,3.4,0,0,1-3.32-4.1Z"/><path class="cls-2" d="M411.52,443.59H425.6a3.39,3.39,0,0,1,3.32,4.1l-5.77,27.1a26.34,26.34,0,0,1,9.08-7.25,25.39,25.39,0,0,1,11.06-2.48,18.94,18.94,0,0,1,6.8,1.05,10.37,10.37,0,0,1,4.26,2.87,10.27,10.27,0,0,1,2.16,4.15,18.55,18.55,0,0,1,.61,4.76,31.08,31.08,0,0,1-.28,4.2,37.4,37.4,0,0,1-.72,4l-7.5,35.58a3.41,3.41,0,0,1-3.33,2.7H431.22a3.39,3.39,0,0,1-3.32-4.1l6.1-28.65a15.49,15.49,0,0,0,.33-3,5.35,5.35,0,0,0-1.27-4,4.55,4.55,0,0,0-3.27-1.22,5.25,5.25,0,0,0-2.15.61,17.77,17.77,0,0,0-2.72,1.66,19.16,19.16,0,0,0-2.82,2.6,21.83,21.83,0,0,0-2.49,3.43l-6.39,29.95a3.4,3.4,0,0,1-3.32,2.69H395.81a3.4,3.4,0,0,1-3.32-4.1l15.71-74A3.39,3.39,0,0,1,411.52,443.59Z"/><path class="cls-2" d="M482.93,525.46a28.62,28.62,0,0,1-10.28-1.77,22.62,22.62,0,0,1-7.91-5,21.77,21.77,0,0,1-5-7.75,27.8,27.8,0,0,1-1.77-10.18,33.13,33.13,0,0,1,3-13.94,35.81,35.81,0,0,1,8.19-11.39,38.09,38.09,0,0,1,12.22-7.64,40.61,40.61,0,0,1,15-2.76q10.62,0,16.54,4.48T518.78,482q0,9.86-9,14.83t-26.71,5h-3.21q0,4.75,1.6,6.69c1.07,1.29,2.89,1.94,5.48,1.94a12,12,0,0,0,9.59-4.26,3.32,3.32,0,0,1,3.55-1l9.42,3a3.4,3.4,0,0,1,1.39,5.62,33.25,33.25,0,0,1-2.54,2.33,41.14,41.14,0,0,1-7.64,5,40.39,40.39,0,0,1-8.68,3.21A38.61,38.61,0,0,1,482.93,525.46ZM492.56,480a8.59,8.59,0,0,0-5.92,2.49,18.78,18.78,0,0,0-4.48,6.7h.77q8.52,0,11.9-1.06t3.37-3.81a3.76,3.76,0,0,0-1.55-3.1A6.43,6.43,0,0,0,492.56,480Z"/><path class="cls-2" d="M578.78,445.81h14.74a3.39,3.39,0,0,1,3.37,3l8,71.76a3.4,3.4,0,0,1-3.37,3.77H586.62a3.4,3.4,0,0,1-3.39-3.23L582.62,509H563.81l-6.28,13.42a3.39,3.39,0,0,1-3.07,2H540.28a3.4,3.4,0,0,1-3-5l38.51-71.76A3.38,3.38,0,0,1,578.78,445.81Zm3.51,48.79-.89-24.34L570,494.6Z"/><path class="cls-2" d="M625.08,466.16h14.08a3.4,3.4,0,0,1,3.32,4.11l-11,51.4a3.38,3.38,0,0,1-3.32,2.69H614.13a3.4,3.4,0,0,1-3.32-4.1l11-51.41A3.39,3.39,0,0,1,625.08,466.16Zm6.81-22.57h8.9a5.93,5.93,0,0,1,5.8,7.16l-1.25,5.85a5.92,5.92,0,0,1-5.79,4.7h-8.91a5.92,5.92,0,0,1-5.79-7.16l1.24-5.85A5.93,5.93,0,0,1,631.89,443.59Z"/><path class="cls-2" d="M658,525.46q-7,0-10.51-3t-3.54-8.79c0-.81,0-1.63.11-2.44a16.32,16.32,0,0,1,.44-2.54l13.26-62.37a3.39,3.39,0,0,1,3.32-2.69h14.07a3.4,3.4,0,0,1,3.32,4.11L667,501.23a10.22,10.22,0,0,0-.33,2.44c0,2.8,1.32,4.2,4,4.2a10,10,0,0,0,2.76-.44,14.34,14.34,0,0,0,3-1.22l-.57,13.29a3.35,3.35,0,0,1-2.12,3A48.25,48.25,0,0,1,658,525.46Z"/><path class="cls-2" d="M766.36,466.16h12.28a3.4,3.4,0,0,1,3.32,4.13l-1.53,6.94a33.19,33.19,0,0,1,9.24-9,18.74,18.74,0,0,1,10-3.15h1.66a2.27,2.27,0,0,1,.77.11l-3.43,16.3a3.44,3.44,0,0,1-3.22,2.69,39.76,39.76,0,0,0-8,1.25,17.34,17.34,0,0,0-7.18,3.68,3.34,3.34,0,0,0-1,1.81l-6.51,30.77a3.39,3.39,0,0,1-3.32,2.69H755.41a3.4,3.4,0,0,1-3.32-4.1L763,468.85A3.39,3.39,0,0,1,766.36,466.16Z"/><path class="cls-2" d="M812.73,525.46q-6.63,0-10.12-3.48t-3.49-10.23a36.27,36.27,0,0,1,.89-7.31l7.61-35.59a3.4,3.4,0,0,1,3.32-2.69h14a3.39,3.39,0,0,1,3.32,4.1L822,499.69a14.71,14.71,0,0,0-.34,3c0,3.39,1.41,5.09,4.21,5.09a10.45,10.45,0,0,0,4.31-1.11,18.2,18.2,0,0,0,5.64-4.86l7.06-32.94a3.4,3.4,0,0,1,3.32-2.69h14.09a3.39,3.39,0,0,1,3.32,4.1l-6.54,30.86a13.71,13.71,0,0,0-.34,2.66c0,1.84,1,2.8,3,2.87l-3.29,15.49a3.44,3.44,0,0,1-2.8,2.65,41.29,41.29,0,0,1-6.74.67,15,15,0,0,1-7.8-1.82q-3-1.83-3-6.25a8.74,8.74,0,0,1,.06-1,10.4,10.4,0,0,1,.17-1.05,30.32,30.32,0,0,1-10.79,7.79A33.32,33.32,0,0,1,812.73,525.46Z"/><path class="cls-2" d="M696.58,525.46q-6.65,0-10.13-3.48T683,511.75a36.18,36.18,0,0,1,.88-7.31l7.61-35.59a3.4,3.4,0,0,1,3.32-2.69h14a3.39,3.39,0,0,1,3.32,4.1l-6.21,29.43a15.39,15.39,0,0,0-.33,3q0,5.08,4.2,5.09a10.49,10.49,0,0,0,4.32-1.11,18.2,18.2,0,0,0,5.64-4.86l7.06-32.94a3.39,3.39,0,0,1,3.32-2.69h14.08a3.41,3.41,0,0,1,3.33,4.1l-6.55,30.86a14.38,14.38,0,0,0-.33,2.66c0,1.84,1,2.8,3,2.87l-3.28,15.49a3.46,3.46,0,0,1-2.81,2.65,41.19,41.19,0,0,1-6.74.67,15,15,0,0,1-7.8-1.82q-3-1.83-3-6.25a8.74,8.74,0,0,1,.06-1,10.3,10.3,0,0,1,.16-1.05,30.29,30.29,0,0,1-10.78,7.79A33.39,33.39,0,0,1,696.58,525.46Z"/><path class="cls-2" d="M887.63,525.46A37.81,37.81,0,0,1,873.86,523a25.13,25.13,0,0,1-8.2-5,3.4,3.4,0,0,1-.37-4.58l8-10.31a39.81,39.81,0,0,0,8.8,5.65,20,20,0,0,0,8.24,2,4.29,4.29,0,0,0,3.1-.89,3.27,3.27,0,0,0,.88-2.43,3.06,3.06,0,0,0-1.33-2.32,16.55,16.55,0,0,0-4.86-2.33,72.37,72.37,0,0,1-8.08-3.09,30.4,30.4,0,0,1-5.48-3.21,10.86,10.86,0,0,1-3.15-3.65,10.07,10.07,0,0,1-1-4.54,19.93,19.93,0,0,1,2.16-9.13,23.35,23.35,0,0,1,5.92-7.41,29.14,29.14,0,0,1,8.74-5A30.54,30.54,0,0,1,897.81,465a36.22,36.22,0,0,1,11.29,1.66,23.81,23.81,0,0,1,9.84,6.74l-8.48,10.18a3.4,3.4,0,0,1-4.56.59,41.45,41.45,0,0,0-5.1-3.13,13.28,13.28,0,0,0-6-1.55,4.44,4.44,0,0,0-3,.94,3.22,3.22,0,0,0-1.11,2.6,2.76,2.76,0,0,0,1.5,2.38,25.64,25.64,0,0,0,5.36,2.16q9.63,2.87,13.66,6.3a11.06,11.06,0,0,1,4,8.85,21.43,21.43,0,0,1-2,9.3,20.64,20.64,0,0,1-5.64,7.19,26.61,26.61,0,0,1-8.74,4.64A36.17,36.17,0,0,1,887.63,525.46Z"/><path class="cls-2" d="M340.16,553.92a3.4,3.4,0,0,1,3.32-2.69h24.31a15,15,0,0,1,7.09,1.63,16.87,16.87,0,0,1,5.28,4.26,18.87,18.87,0,0,1,3.34,6.07,21.92,21.92,0,0,1,1.16,7,23.83,23.83,0,0,1-2.09,9.6,29,29,0,0,1-5.65,8.52,29.58,29.58,0,0,1-8.29,6.12,22.23,22.23,0,0,1-10.11,2.36h-9.45l-3.69,17.51a3.41,3.41,0,0,1-3.33,2.7H330.93a3.39,3.39,0,0,1-3.32-4.1Zm20.5,27.16a3.7,3.7,0,0,0,1.8-.56,5.37,5.37,0,0,0,1.76-1.71,11,11,0,0,0,1.35-2.92,14,14,0,0,0,.55-4.17c0-1.79-.32-3-1-3.71a2.79,2.79,0,0,0-2-1h-7.69l-3,14.09Z"/><path class="cls-2" d="M394.45,568.29h9.16a3.38,3.38,0,0,1,3.31,4.12l-1.13,5.15a27.89,27.89,0,0,1,7.74-7.56,15.72,15.72,0,0,1,8.39-2.64h1.39a2.17,2.17,0,0,1,.65.09l-2.79,13.25a3.35,3.35,0,0,1-3,2.68,33.31,33.31,0,0,0-6.44,1,14.14,14.14,0,0,0-6.67,3.71l-5.55,26.23a3.39,3.39,0,0,1-3.32,2.69H385.52a3.39,3.39,0,0,1-3.32-4.1l8.93-42A3.39,3.39,0,0,1,394.45,568.29Z"/><path class="cls-2" d="M442.12,618a24.11,24.11,0,0,1-9.22-1.62,18.34,18.34,0,0,1-6.54-4.4,17.59,17.59,0,0,1-3.84-6.49,24,24,0,0,1-1.25-7.78,30.52,30.52,0,0,1,8.43-20.85,30.85,30.85,0,0,1,9.92-6.86,32.3,32.3,0,0,1,13.25-2.6,24.11,24.11,0,0,1,9.22,1.62,18.24,18.24,0,0,1,6.54,4.41,17.55,17.55,0,0,1,3.84,6.44,23.89,23.89,0,0,1,1.26,7.83,30.22,30.22,0,0,1-8.49,20.85,31.52,31.52,0,0,1-10,6.86A32.07,32.07,0,0,1,442.12,618Zm3.15-14.82a7.93,7.93,0,0,0,3.89-1,10.63,10.63,0,0,0,3.25-2.79,13.41,13.41,0,0,0,2.18-4.21,17.52,17.52,0,0,0,.78-5.33,9.26,9.26,0,0,0-1.48-5.56,4.86,4.86,0,0,0-4.17-2,7.93,7.93,0,0,0-3.89,1,10.73,10.73,0,0,0-3.25,2.78,13.24,13.24,0,0,0-2.17,4.22,17.17,17.17,0,0,0-.79,5.33,9.28,9.28,0,0,0,1.48,5.56A4.86,4.86,0,0,0,445.27,603.14Z"/><path class="cls-2" d="M468.77,636.41a18.26,18.26,0,0,1-6.9-1.3,16,16,0,0,1-2.44-1.24,3.43,3.43,0,0,1-.87-5.07l7.62-9.35a3.82,3.82,0,0,0,3.52,1.85q3.06,0,4-4L483.5,571a3.38,3.38,0,0,1,3.32-2.69h10.76a3.39,3.39,0,0,1,3.32,4.1l-9.23,43.53a30,30,0,0,1-3.15,8.3,26.43,26.43,0,0,1-5.15,6.49,21.93,21.93,0,0,1-6.76,4.21A21.17,21.17,0,0,1,468.77,636.41Zm22.12-87h10.67a3.39,3.39,0,0,1,3.32,4.1l-1.7,8a3.4,3.4,0,0,1-3.32,2.69H489.19a3.39,3.39,0,0,1-3.32-4.1l1.7-8A3.4,3.4,0,0,1,490.89,549.38Z"/><path class="cls-2" d="M523.36,618a24,24,0,0,1-8.62-1.48,19,19,0,0,1-6.62-4.17,18.15,18.15,0,0,1-4.22-6.49,23.22,23.22,0,0,1-1.48-8.52,27.73,27.73,0,0,1,2.5-11.68,30,30,0,0,1,6.86-9.55A31.86,31.86,0,0,1,522,569.68a33.84,33.84,0,0,1,12.55-2.32q8.91,0,13.86,3.75a12.34,12.34,0,0,1,5,10.43q0,8.25-7.55,12.42t-22.39,4.17h-2.68q0,4,1.34,5.61t4.59,1.62a10.11,10.11,0,0,0,9.08-5l10.74,3.46a2.25,2.25,0,0,1,1,3.64,27.61,27.61,0,0,1-2.87,2.73,33.87,33.87,0,0,1-6.4,4.17A33.41,33.41,0,0,1,531,617,32.31,32.31,0,0,1,523.36,618Zm8.06-38.09a7.18,7.18,0,0,0-4.95,2.09,15.73,15.73,0,0,0-3.76,5.61h.65q7.14,0,10-.89c1.88-.58,2.82-1.65,2.82-3.19a3.18,3.18,0,0,0-1.29-2.6A5.44,5.44,0,0,0,531.42,579.87Z"/><path class="cls-2" d="M575.73,618a23.62,23.62,0,0,1-9.23-1.66,19,19,0,0,1-6.53-4.45,18.2,18.2,0,0,1-3.89-6.49,23.56,23.56,0,0,1-1.3-7.88A28.94,28.94,0,0,1,557,586.41a29.59,29.59,0,0,1,6.4-9.64,32.47,32.47,0,0,1,10-6.81,31.84,31.84,0,0,1,13.07-2.6q8.61,0,13.53,3.71a17.89,17.89,0,0,1,5.73,7.17,2.21,2.21,0,0,1-1.39,3l-16,4.56a5.2,5.2,0,0,0-5.1-3.62,7.82,7.82,0,0,0-3.75,1,10.85,10.85,0,0,0-3.25,2.74,13.44,13.44,0,0,0-2.26,4.21,16.72,16.72,0,0,0-.84,5.43,9.08,9.08,0,0,0,1.53,5.56,4.89,4.89,0,0,0,4.13,2q3.51,0,6.58-3.62l13,4.23a2.19,2.19,0,0,1,.92,3.55,33.52,33.52,0,0,1-8.6,7A29.72,29.72,0,0,1,575.73,618Z"/><path class="cls-2" d="M621.6,618.06a19.9,19.9,0,0,1-4.63-.51,10.07,10.07,0,0,1-3.75-1.72,7.94,7.94,0,0,1-2.5-3.06,10.71,10.71,0,0,1-.89-4.63,19.9,19.9,0,0,1,.1-2,15.55,15.55,0,0,1,.37-2.22L615,581.54h-3.64a1.62,1.62,0,0,1-1.58-2l2.17-10a1.62,1.62,0,0,1,1.58-1.28h4.35l2.67-12.6a3.4,3.4,0,0,1,3.32-2.7h10.67a3.39,3.39,0,0,1,3.32,4.1l-2.37,11.2h6.9a1.61,1.61,0,0,1,1.58,2l-2.1,10a1.63,1.63,0,0,1-1.59,1.29h-7.67l-3.42,16.13a7.72,7.72,0,0,0-.15.88,7.28,7.28,0,0,0,0,.78c0,1.8.93,2.69,2.78,2.69a12.36,12.36,0,0,0,2.83-.41,27.21,27.21,0,0,0,3.56-1.16V612a3.37,3.37,0,0,1-2.23,3.2c-2,.7-4.06,1.3-6.15,1.82A34.3,34.3,0,0,1,621.6,618.06Z"/><text class="cls-3" transform="translate(694.4 613.73)">Cargo</text></svg>