<svg id="Layer_1" data-name="Layer 1" xmlns="http://www.w3.org/2000/svg" viewBox="0 0 997.52 348.08"><defs><style>.cls-1,.cls-2{fill:#f4f4f4;}.cls-2{font-size:87.42px;font-family:Raleway-BlackItalic, Raleway;font-weight:800;font-style:italic;}</style></defs><path class="cls-1" d="M209.43,164.06a50.51,50.51,0,0,1-11.21,8.46c-10.3,5.42-20.92,4.8-31.54,5.63-16.77,1.31-25.9,20.46-25.9,20.46,1.2-15.73,4.27-32.89,10.95-47.69,8.28-18.35,26.72-28.18,43.54-28.89a49.36,49.36,0,0,1,17.79,2.59l-3.52,1.23-4.27,1.85c-1.39.7-2.8,1.38-4.19,2.1L197,132.21c-1.34.86-2.66,1.76-4,2.67a71.14,71.14,0,0,0-14.13,13.31,133.87,133.87,0,0,1,15.26-10.81c1.33-.74,2.65-1.49,4-2.27l4-2.08c1.37-.61,2.71-1.27,4.06-1.91l4.11-1.69,4.15-1.54,4.19-1.31,4.21-1.14c1.41-.29,2.82-.61,4.24-.94a107.41,107.41,0,0,1,17.17-1.9,49.89,49.89,0,0,0-17.2-1c-1.47.18-2.94.38-4.41.61l-4.3.9a215.92,215.92,0,0,1,20-43.93,691.15,691.15,0,0,1-73.45,3.64c-24.58-.08-47.53-1.47-68.6-3.64a194,194,0,0,1,9.77,89.92,212.48,212.48,0,0,1-28.39,80.84c24.94-1.82,51.55-2.79,79.65-2.55,21.76.2,42.59,1.11,62.39,2.55-11-32.2-12.65-59.6-10.76-80.84C209.09,167.37,209.25,165.7,209.43,164.06Z"/><path class="cls-1" d="M293.33,90.28H274.51a3.77,3.77,0,0,1-3.69-4.55l2.82-13.36a3.78,3.78,0,0,1,3.69-3h63.1a3.77,3.77,0,0,1,3.69,4.55l-2.83,13.36a3.78,3.78,0,0,1-3.69,3H317.3l-13.5,63.39a3.77,3.77,0,0,1-3.69,3H283.85a3.77,3.77,0,0,1-3.69-4.56Z"/><path class="cls-1" d="M356,66.92h15.64a3.77,3.77,0,0,1,3.69,4.56l-6.41,30.11a29.06,29.06,0,0,1,10.08-8,28,28,0,0,1,12.29-2.77,21,21,0,0,1,7.56,1.17,11,11,0,0,1,7.13,7.8,20.91,20.91,0,0,1,.68,5.29,34.78,34.78,0,0,1-.31,4.67,42.72,42.72,0,0,1-.8,4.43l-8.34,39.54a3.78,3.78,0,0,1-3.69,3H377.89a3.78,3.78,0,0,1-3.69-4.56L381,120.27a17.43,17.43,0,0,0,.37-3.31c0-2-.48-3.53-1.42-4.43a5,5,0,0,0-3.62-1.35,5.77,5.77,0,0,0-2.4.67,19,19,0,0,0-3,1.85,20.31,20.31,0,0,0-3.14,2.89A23.51,23.51,0,0,0,365,120.4l-7.11,33.28a3.77,3.77,0,0,1-3.69,3H338.55a3.78,3.78,0,0,1-3.69-4.55l17.46-82.2A3.77,3.77,0,0,1,356,66.92Z"/><path class="cls-1" d="M435.35,157.89a31.89,31.89,0,0,1-11.43-2,25.07,25.07,0,0,1-8.79-5.53,24.08,24.08,0,0,1-5.59-8.61,30.83,30.83,0,0,1-2-11.3A36.81,36.81,0,0,1,410.89,115a39.65,39.65,0,0,1,9.1-12.66,42.32,42.32,0,0,1,13.58-8.49,45.24,45.24,0,0,1,16.66-3.07q11.81,0,18.37,5t6.58,13.83q0,10.94-10,16.47t-29.68,5.53h-3.57q0,5.29,1.78,7.44t6.09,2.15a13.3,13.3,0,0,0,10.66-4.73,3.66,3.66,0,0,1,3.94-1.08l10.46,3.37a3.78,3.78,0,0,1,1.55,6.25,36.56,36.56,0,0,1-2.82,2.58,45.6,45.6,0,0,1-8.49,5.54,45.06,45.06,0,0,1-9.65,3.56A42.38,42.38,0,0,1,435.35,157.89Zm10.7-50.53a9.57,9.57,0,0,0-6.58,2.77,21,21,0,0,0-5,7.44h.86q9.47,0,13.22-1.17t3.75-4.24a4.21,4.21,0,0,0-1.72-3.44A7.19,7.19,0,0,0,446.05,107.36Z"/><path class="cls-1" d="M541.85,69.38h16.37A3.77,3.77,0,0,1,562,72.74l8.88,79.73a3.77,3.77,0,0,1-3.75,4.19H550.56a3.78,3.78,0,0,1-3.77-3.58l-.68-13.51h-20.9l-7,14.92a3.78,3.78,0,0,1-3.42,2.17H499.07a3.77,3.77,0,0,1-3.33-5.55l42.79-79.74A3.77,3.77,0,0,1,541.85,69.38Zm3.89,54.21-1-27-12.66,27Z"/><path class="cls-1" d="M593.29,92h15.65a3.77,3.77,0,0,1,3.68,4.56l-12.16,57.11a3.76,3.76,0,0,1-3.68,3H581.13a3.77,3.77,0,0,1-3.69-4.56L589.6,95A3.78,3.78,0,0,1,593.29,92Zm7.57-25.08h9.89a6.58,6.58,0,0,1,6.44,8l-1.38,6.51a6.58,6.58,0,0,1-6.44,5.21h-9.9a6.57,6.57,0,0,1-6.43-8l1.38-6.5A6.58,6.58,0,0,1,600.86,66.92Z"/><path class="cls-1" d="M629.82,157.89q-7.74,0-11.68-3.38t-3.93-9.77c0-.9,0-1.81.12-2.71a19.33,19.33,0,0,1,.49-2.83l14.74-69.29a3.78,3.78,0,0,1,3.69-3h15.64a3.77,3.77,0,0,1,3.68,4.56L639.9,131a11.54,11.54,0,0,0-.37,2.7c0,3.12,1.48,4.67,4.43,4.67a11.24,11.24,0,0,0,3.07-.49,16.41,16.41,0,0,0,3.32-1.35l-.63,14.77a3.75,3.75,0,0,1-2.36,3.36,54.18,54.18,0,0,1-17.54,3.26Z"/><path class="cls-1" d="M750.27,92h13.64a3.77,3.77,0,0,1,3.69,4.58l-1.7,7.71a37.2,37.2,0,0,1,10.27-10,20.89,20.89,0,0,1,11.12-3.5h1.85a2.84,2.84,0,0,1,.86.12L786.18,109a3.83,3.83,0,0,1-3.58,3,44,44,0,0,0-8.83,1.39,19.35,19.35,0,0,0-8,4.08,3.67,3.67,0,0,0-1.12,2l-7.23,34.18a3.78,3.78,0,0,1-3.69,3H738.11a3.77,3.77,0,0,1-3.69-4.56L746.58,95A3.78,3.78,0,0,1,750.27,92Z"/><path class="cls-1" d="M801.8,157.89q-7.38,0-11.25-3.87c-2.58-2.59-3.88-6.37-3.88-11.37a40,40,0,0,1,1-8.12L796.12,95a3.76,3.76,0,0,1,3.68-3h15.54A3.78,3.78,0,0,1,819,96.55l-6.91,32.7a17.53,17.53,0,0,0-.37,3.32c0,3.76,1.56,5.65,4.67,5.65a11.85,11.85,0,0,0,4.8-1.23q2.7-1.23,6.27-5.41L835.33,95A3.77,3.77,0,0,1,839,92h15.65a3.77,3.77,0,0,1,3.69,4.56l-7.27,34.28a15.61,15.61,0,0,0-.37,2.95q0,3.08,3.32,3.2l-3.66,17.2a3.81,3.81,0,0,1-3.11,2.95,46,46,0,0,1-7.49.75,16.61,16.61,0,0,1-8.67-2c-2.25-1.35-3.38-3.67-3.38-6.94a10.9,10.9,0,0,1,.06-1.17c.05-.37.11-.76.19-1.17a33.45,33.45,0,0,1-12,8.66A36.93,36.93,0,0,1,801.8,157.89Z"/><path class="cls-1" d="M672.73,157.89q-7.38,0-11.24-3.87c-2.59-2.59-3.88-6.37-3.88-11.37a40,40,0,0,1,1-8.12L667.05,95a3.78,3.78,0,0,1,3.69-3h15.53A3.77,3.77,0,0,1,690,96.55l-6.9,32.7a16.75,16.75,0,0,0-.37,3.32c0,3.76,1.56,5.65,4.67,5.65a11.81,11.81,0,0,0,4.79-1.23q2.72-1.23,6.27-5.41L706.27,95A3.77,3.77,0,0,1,710,92h15.65a3.77,3.77,0,0,1,3.69,4.56L722,130.84a15.61,15.61,0,0,0-.37,2.95c0,2.05,1.1,3.12,3.32,3.2l-3.66,17.2a3.81,3.81,0,0,1-3.11,2.95,46,46,0,0,1-7.49.75,16.56,16.56,0,0,1-8.67-2c-2.25-1.35-3.38-3.67-3.38-6.94a10.9,10.9,0,0,1,.06-1.17q.06-.56.18-1.17a33.42,33.42,0,0,1-12,8.66A36.94,36.94,0,0,1,672.73,157.89Z"/><path class="cls-1" d="M885,157.89a42.09,42.09,0,0,1-15.3-2.77,28,28,0,0,1-9.12-5.52,3.78,3.78,0,0,1-.4-5.09L869,133.06a44.56,44.56,0,0,0,9.77,6.27,22.23,22.23,0,0,0,9.16,2.21,4.76,4.76,0,0,0,3.44-1,3.61,3.61,0,0,0,1-2.7,3.43,3.43,0,0,0-1.47-2.58,18.34,18.34,0,0,0-5.41-2.58,82.67,82.67,0,0,1-9-3.44,32.88,32.88,0,0,1-6.09-3.57,11.94,11.94,0,0,1-3.5-4.05,11.12,11.12,0,0,1-1.11-5,22.15,22.15,0,0,1,2.4-10.15,26.16,26.16,0,0,1,6.57-8.23,32.4,32.4,0,0,1,9.72-5.54,34.06,34.06,0,0,1,11.8-2,40.27,40.27,0,0,1,12.54,1.84,26.65,26.65,0,0,1,10.94,7.5l-9.42,11.3a3.78,3.78,0,0,1-5.07.66,49.3,49.3,0,0,0-5.67-3.48,14.81,14.81,0,0,0-6.64-1.72,5,5,0,0,0-3.32,1,3.56,3.56,0,0,0-1.23,2.88,3.07,3.07,0,0,0,1.66,2.65,28.65,28.65,0,0,0,6,2.4q10.7,3.19,15.18,7a12.32,12.32,0,0,1,4.49,9.84,23.88,23.88,0,0,1-2.21,10.32,22.88,22.88,0,0,1-6.27,8,29.53,29.53,0,0,1-9.71,5.17A40.57,40.57,0,0,1,885,157.89Z"/><path class="cls-1" d="M276.71,189.51a3.78,3.78,0,0,1,3.69-3h27a16.64,16.64,0,0,1,7.87,1.81,18.82,18.82,0,0,1,5.87,4.73,21.09,21.09,0,0,1,3.71,6.75,24.25,24.25,0,0,1,1.29,7.83,26.31,26.31,0,0,1-2.32,10.65,32.68,32.68,0,0,1-15.5,16.27,24.75,24.75,0,0,1-11.22,2.63H286.61l-4.1,19.46a3.78,3.78,0,0,1-3.69,3H266.46a3.77,3.77,0,0,1-3.69-4.56Zm22.78,30.17a4.09,4.09,0,0,0,2-.61,6.08,6.08,0,0,0,1.95-1.91,12.53,12.53,0,0,0,1.5-3.24,15.58,15.58,0,0,0,.61-4.64c0-2-.36-3.36-1.08-4.12a3.12,3.12,0,0,0-2.21-1.13h-8.55l-3.29,15.65Z"/><path class="cls-1" d="M337,205.47h10.17a3.78,3.78,0,0,1,3.69,4.58l-1.26,5.72a30.81,30.81,0,0,1,8.6-8.39,17.43,17.43,0,0,1,9.32-2.94h1.54a2.55,2.55,0,0,1,.72.1l-3.1,14.73a3.72,3.72,0,0,1-3.34,3,37.2,37.2,0,0,0-7.15,1.15,15.66,15.66,0,0,0-7.42,4.12l-6.16,29.14a3.78,3.78,0,0,1-3.69,3H327.11a3.77,3.77,0,0,1-3.69-4.56l9.93-46.62A3.78,3.78,0,0,1,337,205.47Z"/><path class="cls-1" d="M390,260.67a26.76,26.76,0,0,1-10.24-1.8,20.45,20.45,0,0,1-7.26-4.9,19.58,19.58,0,0,1-4.27-7.2,26.81,26.81,0,0,1-1.4-8.65A33.93,33.93,0,0,1,376.21,215a34.28,34.28,0,0,1,11-7.62A35.82,35.82,0,0,1,402,204.44a26.66,26.66,0,0,1,10.25,1.81,20.48,20.48,0,0,1,7.26,4.89,19.76,19.76,0,0,1,4.27,7.15,26.68,26.68,0,0,1,1.39,8.71,33.61,33.61,0,0,1-9.42,23.16,34.83,34.83,0,0,1-11.07,7.62A35.54,35.54,0,0,1,390,260.67Zm3.51-16.48a8.8,8.8,0,0,0,4.32-1.13,11.9,11.9,0,0,0,3.61-3.09,14.83,14.83,0,0,0,2.41-4.69,19,19,0,0,0,.88-5.92,10.25,10.25,0,0,0-1.65-6.17,5.37,5.37,0,0,0-4.63-2.27,8.94,8.94,0,0,0-4.33,1.13,12,12,0,0,0-3.6,3.09,14.64,14.64,0,0,0-2.42,4.69,19.34,19.34,0,0,0-.88,5.92,10.3,10.3,0,0,0,1.65,6.18A5.4,5.4,0,0,0,393.51,244.19Z"/><path class="cls-1" d="M419.62,281.16a20.21,20.21,0,0,1-7.67-1.44,17.34,17.34,0,0,1-2.72-1.38,3.82,3.82,0,0,1-1-5.63l8.47-10.39a4.23,4.23,0,0,0,3.91,2.06c2.27,0,3.74-1.48,4.43-4.43L436,208.46a3.78,3.78,0,0,1,3.69-3h12a3.78,3.78,0,0,1,3.69,4.56L445.06,258.4a33.71,33.71,0,0,1-3.5,9.22,29.36,29.36,0,0,1-5.72,7.21,24.6,24.6,0,0,1-7.52,4.68A23.43,23.43,0,0,1,419.62,281.16Zm24.58-96.7h11.85a3.77,3.77,0,0,1,3.69,4.56l-1.9,8.93a3.76,3.76,0,0,1-3.69,3H442.3a3.77,3.77,0,0,1-3.69-4.55l1.9-8.94A3.78,3.78,0,0,1,444.2,184.46Z"/><path class="cls-1" d="M480.27,260.67A26.63,26.63,0,0,1,470.7,259a21.07,21.07,0,0,1-7.37-4.63,20.35,20.35,0,0,1-4.68-7.21A25.87,25.87,0,0,1,457,237.7a30.84,30.84,0,0,1,2.78-13,33.36,33.36,0,0,1,7.62-10.61,35.39,35.39,0,0,1,11.38-7.1,37.67,37.67,0,0,1,14-2.58q9.88,0,15.4,4.17a13.73,13.73,0,0,1,5.51,11.59q0,9.17-8.39,13.8t-24.87,4.63h-3c0,3,.5,5,1.49,6.23s2.7,1.8,5.1,1.8a11.22,11.22,0,0,0,10.09-5.56L506,244.94a2.5,2.5,0,0,1,1.09,4.05,29.66,29.66,0,0,1-3.19,3,38.33,38.33,0,0,1-15.18,7.62A35.91,35.91,0,0,1,480.27,260.67Zm9-42.33a8,8,0,0,0-5.51,2.32,17.63,17.63,0,0,0-4.17,6.23h.72q7.94,0,11.07-1c2.1-.65,3.14-1.83,3.14-3.55a3.5,3.5,0,0,0-1.44-2.88A6,6,0,0,0,489.23,218.34Z"/><path class="cls-1" d="M538.45,260.67a26.22,26.22,0,0,1-10.24-1.85,21,21,0,0,1-7.26-4.95,20.23,20.23,0,0,1-4.33-7.21,26.29,26.29,0,0,1-1.44-8.75,32.32,32.32,0,0,1,2.47-12.31,33,33,0,0,1,7.11-10.71,36.09,36.09,0,0,1,11.12-7.56,35.25,35.25,0,0,1,14.52-2.89q9.58,0,15,4.12a19.85,19.85,0,0,1,6.36,8,2.44,2.44,0,0,1-1.54,3.34l-17.8,5.07c-1.1-2.68-3-4-5.66-4a8.7,8.7,0,0,0-4.17,1.08,12,12,0,0,0-3.61,3,14.76,14.76,0,0,0-2.52,4.68,18.61,18.61,0,0,0-.93,6,10.1,10.1,0,0,0,1.7,6.18,5.44,5.44,0,0,0,4.58,2.26q3.92,0,7.32-4l14.5,4.69a2.44,2.44,0,0,1,1,3.95,37.34,37.34,0,0,1-9.56,7.73A33,33,0,0,1,538.45,260.67Z"/><path class="cls-1" d="M589.43,260.77a22,22,0,0,1-5.15-.57,11.21,11.21,0,0,1-4.17-1.9,8.87,8.87,0,0,1-2.78-3.4,12,12,0,0,1-1-5.15c0-.75,0-1.51.11-2.26a16.48,16.48,0,0,1,.41-2.47l5.25-24.82h-4a1.8,1.8,0,0,1-1.76-2.19l2.41-11.12a1.81,1.81,0,0,1,1.76-1.42h4.83l3-14a3.78,3.78,0,0,1,3.69-3h11.86a3.78,3.78,0,0,1,3.69,4.55l-2.64,12.44h7.66a1.8,1.8,0,0,1,1.77,2.17L612,218.77a1.8,1.8,0,0,1-1.76,1.43h-8.52l-3.81,17.92a9.31,9.31,0,0,0-.16,1c0,.31-.05.61-.05.88q0,3,3.09,3a13.86,13.86,0,0,0,3.14-.47,29.23,29.23,0,0,0,4-1.28V254a3.75,3.75,0,0,1-2.48,3.55c-2.23.78-4.51,1.45-6.84,2A37.86,37.86,0,0,1,589.43,260.77Z"/><text class="cls-2" transform="translate(670.34 257.99)">Green</text></svg>