<svg id="Layer_1" data-name="Layer 1" xmlns="http://www.w3.org/2000/svg" viewBox="0 0 784.51 273.75"><defs><style>.cls-1{fill:#333;}.cls-2{fill:#32cb32;}</style></defs><path class="cls-1" d="M94.19,93.85h16.38a3.77,3.77,0,0,1,3.74,3.36l8.88,79.73a3.77,3.77,0,0,1-3.75,4.19H102.9a3.78,3.78,0,0,1-3.77-3.58L98.45,164H77.56l-7,14.92a3.77,3.77,0,0,1-3.41,2.17H51.41a3.77,3.77,0,0,1-3.33-5.55L90.87,95.84A3.78,3.78,0,0,1,94.19,93.85Zm3.9,54.21-1-27-12.66,27Z"/><path class="cls-1" d="M145.63,116.47h15.65A3.77,3.77,0,0,1,165,121l-12.16,57.11a3.77,3.77,0,0,1-3.69,3H133.47a3.77,3.77,0,0,1-3.69-4.56l12.16-57.11A3.79,3.79,0,0,1,145.63,116.47Zm7.57-25.08h9.89a6.58,6.58,0,0,1,6.44,8l-1.38,6.51a6.57,6.57,0,0,1-6.44,5.21h-9.89a6.58,6.58,0,0,1-6.44-8l1.38-6.5A6.59,6.59,0,0,1,153.2,91.39Z"/><path class="cls-1" d="M182.17,182.36q-7.75,0-11.68-3.38t-3.94-9.77c0-.9,0-1.8.12-2.71a19.41,19.41,0,0,1,.5-2.83L181.9,94.38a3.78,3.78,0,0,1,3.69-3h15.64A3.77,3.77,0,0,1,204.92,96l-12.68,59.49a11.49,11.49,0,0,0-.36,2.7c0,3.12,1.47,4.67,4.42,4.67a11.18,11.18,0,0,0,3.07-.49,16.18,16.18,0,0,0,3.32-1.35l-.63,14.77a3.72,3.72,0,0,1-2.36,3.36,54.19,54.19,0,0,1-17.53,3.26Z"/><path class="cls-1" d="M302.61,116.47h13.65a3.77,3.77,0,0,1,3.68,4.58l-1.7,7.71a37.2,37.2,0,0,1,10.27-10,20.89,20.89,0,0,1,11.12-3.5h1.85a2.51,2.51,0,0,1,.86.13l-3.81,18.11a3.84,3.84,0,0,1-3.58,3,44,44,0,0,0-8.84,1.39,19.35,19.35,0,0,0-8,4.08,3.7,3.7,0,0,0-1.12,2l-7.23,34.18a3.78,3.78,0,0,1-3.69,3H290.45a3.77,3.77,0,0,1-3.69-4.56l12.16-57.11A3.78,3.78,0,0,1,302.61,116.47Z"/><path class="cls-1" d="M354.14,182.36q-7.38,0-11.25-3.87T339,167.12a39.87,39.87,0,0,1,1-8.12l8.46-39.55a3.77,3.77,0,0,1,3.69-3h15.53a3.78,3.78,0,0,1,3.69,4.55l-6.91,32.7a17.53,17.53,0,0,0-.37,3.32q0,5.66,4.68,5.65a11.81,11.81,0,0,0,4.79-1.23c1.8-.81,3.89-2.62,6.27-5.41l7.84-36.6a3.78,3.78,0,0,1,3.69-3H407A3.77,3.77,0,0,1,410.7,121l-7.27,34.29a15.43,15.43,0,0,0-.37,3c0,2,1.11,3.11,3.32,3.19l-3.65,17.2a3.83,3.83,0,0,1-3.12,3,45.87,45.87,0,0,1-7.49.75,16.55,16.55,0,0,1-8.66-2q-3.39-2-3.39-6.94a10.82,10.82,0,0,1,.07-1.17q.06-.56.18-1.17a33.66,33.66,0,0,1-12,8.67A37.2,37.2,0,0,1,354.14,182.36Z"/><path class="cls-1" d="M225.08,182.36q-7.38,0-11.25-3.87T210,167.12a40,40,0,0,1,1-8.12l8.46-39.55a3.76,3.76,0,0,1,3.68-3h15.54a3.78,3.78,0,0,1,3.69,4.55l-6.91,32.7A17.53,17.53,0,0,0,235,157q0,5.66,4.67,5.65a11.85,11.85,0,0,0,4.8-1.23c1.8-.81,3.89-2.62,6.27-5.41l7.84-36.6a3.77,3.77,0,0,1,3.69-3H278a3.77,3.77,0,0,1,3.69,4.56l-7.27,34.29a15.43,15.43,0,0,0-.37,3c0,2,1.11,3.11,3.32,3.19l-3.66,17.2a3.81,3.81,0,0,1-3.11,3,46,46,0,0,1-7.49.75,16.61,16.61,0,0,1-8.67-2q-3.37-2-3.38-6.94a10.9,10.9,0,0,1,.06-1.17c.05-.37.1-.76.19-1.17a33.61,33.61,0,0,1-12,8.67A37.12,37.12,0,0,1,225.08,182.36Z"/><path class="cls-1" d="M437.36,182.36a42.09,42.09,0,0,1-15.3-2.77,28.12,28.12,0,0,1-9.12-5.52,3.8,3.8,0,0,1-.4-5.09l8.84-11.45a45,45,0,0,0,9.77,6.27,22.23,22.23,0,0,0,9.16,2.21,4.81,4.81,0,0,0,3.44-1,3.66,3.66,0,0,0,1-2.71,3.45,3.45,0,0,0-1.48-2.58,18.21,18.21,0,0,0-5.41-2.58,82.67,82.67,0,0,1-9-3.44,32.88,32.88,0,0,1-6.09-3.57,12.06,12.06,0,0,1-3.5-4.05,11.12,11.12,0,0,1-1.11-5,22.08,22.08,0,0,1,2.4-10.14,26,26,0,0,1,6.58-8.24,32,32,0,0,1,9.71-5.53,33.83,33.83,0,0,1,11.8-2A40.27,40.27,0,0,1,461.21,117a26.52,26.52,0,0,1,10.94,7.5l-9.42,11.31a3.78,3.78,0,0,1-5.07.65,49.3,49.3,0,0,0-5.67-3.48,14.81,14.81,0,0,0-6.64-1.72,5,5,0,0,0-3.32,1.05,3.57,3.57,0,0,0-1.23,2.88,3.07,3.07,0,0,0,1.66,2.65,28.33,28.33,0,0,0,6,2.4q10.69,3.2,15.19,7a12.31,12.31,0,0,1,4.48,9.84,23.7,23.7,0,0,1-2.21,10.32,22.65,22.65,0,0,1-6.27,8,29.53,29.53,0,0,1-9.71,5.17A40.27,40.27,0,0,1,437.36,182.36Z"/><path class="cls-2" d="M530.57,176.24a28.57,28.57,0,0,1-7.52,4.33,22.59,22.59,0,0,1-7.87,1.35,24.06,24.06,0,0,1-9.09-1.7,20.51,20.51,0,0,1-7.25-4.94,23.16,23.16,0,0,1-4.81-7.87,29.71,29.71,0,0,1-1.75-10.58A35,35,0,0,1,495.47,142,39.39,39.39,0,0,1,504,130a40.32,40.32,0,0,1,12.15-8A35.53,35.53,0,0,1,530.31,119a29.25,29.25,0,0,1,7.43.92,21.61,21.61,0,0,1,6.29,2.71,18.31,18.31,0,0,1,4.72,4.28,17.33,17.33,0,0,1,2.89,5.64L537,142.23a10.68,10.68,0,0,0-10.49-8.13,13,13,0,0,0-6.29,1.62,18.44,18.44,0,0,0-5.29,4.37,21,21,0,0,0-3.67,6.52,23.32,23.32,0,0,0-1.36,8,13.91,13.91,0,0,0,2.62,8.83,8.94,8.94,0,0,0,7.44,3.32q6.81,0,13.46-6.12H523.23l2.53-12.24h24.83l-7.08,33.05h-14Z"/><path class="cls-2" d="M560.38,135.5h15.21l-1.92,8.75a26.27,26.27,0,0,1,7.3-7.13,14.82,14.82,0,0,1,7.91-2.49h1.31a1.87,1.87,0,0,1,.61.09l-3.14,14.95a32.49,32.49,0,0,0-8.4,1,13.27,13.27,0,0,0-6.29,3.5l-5.77,27.28H550.59Z"/><path class="cls-2" d="M608,182.36a22.74,22.74,0,0,1-8.13-1.4,17.88,17.88,0,0,1-6.25-3.93,17.19,17.19,0,0,1-4-6.12,21.81,21.81,0,0,1-1.4-8,26.07,26.07,0,0,1,2.36-11,28.25,28.25,0,0,1,6.47-9,30.1,30.1,0,0,1,9.66-6,32.17,32.17,0,0,1,11.84-2.18q8.4,0,13.07,3.54a11.64,11.64,0,0,1,4.68,9.83q0,7.78-7.13,11.72t-21.11,3.93h-2.53q0,3.76,1.26,5.29c.85,1,2.29,1.53,4.33,1.53a9.53,9.53,0,0,0,8.57-4.72l13,4.2a25.06,25.06,0,0,1-4.67,5.07,33.26,33.26,0,0,1-6,3.93,32.2,32.2,0,0,1-6.87,2.54A30.31,30.31,0,0,1,608,182.36Zm7.61-35.93a6.81,6.81,0,0,0-4.68,2,14.78,14.78,0,0,0-3.54,5.29H608q6.74,0,9.4-.83c1.78-.56,2.67-1.56,2.67-3a3,3,0,0,0-1.23-2.45A5.07,5.07,0,0,0,615.63,146.43Z"/><path class="cls-2" d="M657.5,182.36a22.74,22.74,0,0,1-8.13-1.4,17.88,17.88,0,0,1-6.25-3.93,17.35,17.35,0,0,1-4-6.12,22,22,0,0,1-1.39-8,26.07,26.07,0,0,1,2.36-11,28.25,28.25,0,0,1,6.47-9,29.89,29.89,0,0,1,9.66-6,32.17,32.17,0,0,1,11.84-2.18q8.4,0,13.07,3.54a11.64,11.64,0,0,1,4.68,9.83q0,7.78-7.13,11.72t-21.11,3.93h-2.53q0,3.76,1.26,5.29c.85,1,2.29,1.53,4.33,1.53a9.53,9.53,0,0,0,8.57-4.72l13,4.2a25.06,25.06,0,0,1-4.67,5.07,33,33,0,0,1-6,3.93,31.92,31.92,0,0,1-6.86,2.54A30.31,30.31,0,0,1,657.5,182.36Zm7.61-35.93a6.81,6.81,0,0,0-4.68,2,14.78,14.78,0,0,0-3.54,5.29h.61q6.74,0,9.4-.83c1.78-.56,2.67-1.56,2.67-3a3,3,0,0,0-1.23-2.45A5.07,5.07,0,0,0,665.11,146.43Z"/><path class="cls-2" d="M695,135.5H710l-1.48,6.82a19.74,19.74,0,0,1,7.65-5.72,25.66,25.66,0,0,1,10.27-2,13.41,13.41,0,0,1,5.2.87,8.17,8.17,0,0,1,3.24,2.36,8.56,8.56,0,0,1,1.61,3.37,16.79,16.79,0,0,1,.44,3.8,22.89,22.89,0,0,1-.22,3.24q-.21,1.57-.48,3l-6.38,30.25H713.19l5.51-25.88a12.14,12.14,0,0,0,.26-2.27,4.36,4.36,0,0,0-1-3.19,3.28,3.28,0,0,0-2.4-1A7.26,7.26,0,0,0,711.4,151a15.52,15.52,0,0,0-4.07,4.72l-5.51,25.79H685.21Z"/></svg>