<svg id="Layer_1" data-name="Layer 1" xmlns="http://www.w3.org/2000/svg" viewBox="0 0 784.51 273.75"><defs><style>.cls-1{fill:#333;}.cls-2{fill:orange;}</style></defs><path class="cls-1" d="M127.15,98.15h14.74a3.39,3.39,0,0,1,3.37,3l8,71.77a3.4,3.4,0,0,1-3.37,3.77H135a3.4,3.4,0,0,1-3.39-3.23L131,161.33H112.18l-6.28,13.42a3.39,3.39,0,0,1-3.07,2H88.65a3.4,3.4,0,0,1-3-5l38.51-71.77A3.4,3.4,0,0,1,127.15,98.15Zm3.51,48.79-.89-24.34-11.4,24.34Z"/><path class="cls-1" d="M173.45,118.51h14.08a3.39,3.39,0,0,1,3.32,4.1L179.91,174a3.4,3.4,0,0,1-3.32,2.69H162.5a3.41,3.41,0,0,1-3.32-4.11l10.95-51.4A3.39,3.39,0,0,1,173.45,118.51Zm6.81-22.57h8.9a5.93,5.93,0,0,1,5.8,7.16L193.72,109a5.93,5.93,0,0,1-5.8,4.69H179a5.92,5.92,0,0,1-5.79-7.15l1.24-5.86A5.94,5.94,0,0,1,180.26,95.94Z"/><path class="cls-1" d="M206.33,177.81q-7,0-10.51-3T192.28,166c0-.82,0-1.63.11-2.44a16.64,16.64,0,0,1,.44-2.55l13.26-62.36a3.39,3.39,0,0,1,3.32-2.69h14.07a3.39,3.39,0,0,1,3.32,4.1l-11.4,53.54a10.22,10.22,0,0,0-.33,2.44c0,2.8,1.32,4.2,4,4.2a10,10,0,0,0,2.76-.44,14.34,14.34,0,0,0,3-1.22l-.57,13.29a3.35,3.35,0,0,1-2.12,3,48.25,48.25,0,0,1-15.78,2.93Z"/><path class="cls-1" d="M314.73,118.51H327a3.4,3.4,0,0,1,3.32,4.13l-1.53,6.93a33.29,33.29,0,0,1,9.24-9,18.66,18.66,0,0,1,10-3.15h1.66a2.27,2.27,0,0,1,.77.11l-3.43,16.3a3.44,3.44,0,0,1-3.22,2.69,39.76,39.76,0,0,0-7.95,1.25,17.34,17.34,0,0,0-7.18,3.68,3.34,3.34,0,0,0-1,1.81L321.18,174a3.39,3.39,0,0,1-3.32,2.7H303.79a3.4,3.4,0,0,1-3.32-4.11l10.94-51.4A3.39,3.39,0,0,1,314.73,118.51Z"/><path class="cls-1" d="M361.1,177.81q-6.63,0-10.12-3.48t-3.49-10.24a36.27,36.27,0,0,1,.89-7.3L356,121.2a3.4,3.4,0,0,1,3.32-2.69h14a3.39,3.39,0,0,1,3.32,4.1L370.4,152a14.88,14.88,0,0,0-.34,3c0,3.39,1.41,5.09,4.21,5.09a10.61,10.61,0,0,0,4.31-1.11,18.09,18.09,0,0,0,5.64-4.86l7.06-32.95a3.4,3.4,0,0,1,3.32-2.68h14.09a3.39,3.39,0,0,1,3.32,4.1l-6.54,30.86a14.54,14.54,0,0,0-.34,2.66c0,1.84,1,2.8,3,2.87l-3.29,15.49a3.44,3.44,0,0,1-2.8,2.65,41.29,41.29,0,0,1-6.74.67,15,15,0,0,1-7.8-1.83q-3-1.81-3-6.24c0-.37,0-.72.05-1.06s.09-.68.17-1.05a30.23,30.23,0,0,1-10.79,7.8A33.32,33.32,0,0,1,361.1,177.81Z"/><path class="cls-1" d="M245,177.81q-6.64,0-10.13-3.48t-3.48-10.24a36.18,36.18,0,0,1,.88-7.3l7.61-35.59a3.4,3.4,0,0,1,3.32-2.69h14a3.39,3.39,0,0,1,3.32,4.1L254.24,152a15.57,15.57,0,0,0-.33,3q0,5.08,4.2,5.09a10.65,10.65,0,0,0,4.32-1.11,18.2,18.2,0,0,0,5.64-4.86l7.06-32.95a3.39,3.39,0,0,1,3.32-2.68h14.09a3.4,3.4,0,0,1,3.32,4.1l-6.55,30.86a14.38,14.38,0,0,0-.33,2.66c0,1.84,1,2.8,3,2.87l-3.29,15.49a3.46,3.46,0,0,1-2.81,2.65,41.19,41.19,0,0,1-6.74.67,15,15,0,0,1-7.8-1.83q-3-1.81-3-6.24a9,9,0,0,1,.06-1.06c0-.33.09-.68.16-1.05a30.2,30.2,0,0,1-10.78,7.8A33.39,33.39,0,0,1,245,177.81Z"/><path class="cls-1" d="M436,177.81a38,38,0,0,1-13.77-2.49,25.41,25.41,0,0,1-8.2-5,3.4,3.4,0,0,1-.37-4.58l8-10.31a39.39,39.39,0,0,0,8.8,5.64,19.86,19.86,0,0,0,8.24,2,4.33,4.33,0,0,0,3.1-.89,3.28,3.28,0,0,0,.88-2.43,3.09,3.09,0,0,0-1.33-2.33,16.85,16.85,0,0,0-4.86-2.32,70.33,70.33,0,0,1-8.08-3.1,29.83,29.83,0,0,1-5.48-3.2,10.86,10.86,0,0,1-3.15-3.65,10.07,10.07,0,0,1-1-4.54,20,20,0,0,1,2.16-9.13,23.35,23.35,0,0,1,5.92-7.41,28.93,28.93,0,0,1,8.74-5,30.54,30.54,0,0,1,10.62-1.82A36.52,36.52,0,0,1,457.47,119a23.94,23.94,0,0,1,9.84,6.75l-8.47,10.18a3.42,3.42,0,0,1-4.57.59,41.45,41.45,0,0,0-5.1-3.13,13.28,13.28,0,0,0-6-1.55,4.44,4.44,0,0,0-3,.94,3.22,3.22,0,0,0-1.11,2.6,2.76,2.76,0,0,0,1.5,2.38,26.21,26.21,0,0,0,5.36,2.16q9.63,2.87,13.66,6.3a11.06,11.06,0,0,1,4,8.85,21.46,21.46,0,0,1-2,9.3,20.64,20.64,0,0,1-5.64,7.19,26.61,26.61,0,0,1-8.74,4.64A36.17,36.17,0,0,1,436,177.81Z"/><path class="cls-2" d="M502,135.92H487.45L490.19,123h43.87l-2.74,12.95H516.85l-8.76,41.13H493.23Z"/><path class="cls-2" d="M535.05,137H548.3l-1.67,7.61a22.82,22.82,0,0,1,6.36-6.2,12.9,12.9,0,0,1,6.89-2.18H561a1.75,1.75,0,0,1,.54.08l-2.75,13a28.32,28.32,0,0,0-7.31.91,11.5,11.5,0,0,0-5.48,3l-5,23.76H526.52Z"/><path class="cls-2" d="M573.51,177.81a14.44,14.44,0,0,1-6-1.18,12.63,12.63,0,0,1-4.45-3.31,14.49,14.49,0,0,1-2.78-5.11,21.2,21.2,0,0,1-.95-6.55,27.22,27.22,0,0,1,1.75-9.78,27.75,27.75,0,0,1,4.72-8.12,22.64,22.64,0,0,1,6.89-5.52,17.91,17.91,0,0,1,8.27-2,11,11,0,0,1,6.28,1.76,8.55,8.55,0,0,1,3.54,5l1.22-5.64h14.55l-5.1,23.76a9.38,9.38,0,0,0-.23,1.83c0,1.27.68,1.93,2.06,2l-2.59,12.19a32.8,32.8,0,0,1-6.17.76,9.82,9.82,0,0,1-5.41-1.29q-2-1.31-2-4.57a6.63,6.63,0,0,1,.07-1.15,16.77,16.77,0,0,1-6.36,5.34A17.42,17.42,0,0,1,573.51,177.81Zm6.55-12.18a6.26,6.26,0,0,0,3.43-1,18.82,18.82,0,0,0,3.5-3.09l1.53-7.16a8,8,0,0,0-1.87-4.3,4.63,4.63,0,0,0-3.54-1.64,6,6,0,0,0-3.12.92,10.28,10.28,0,0,0-2.74,2.39,12.1,12.1,0,0,0-2.67,7.58,7,7,0,0,0,1.41,4.61A5,5,0,0,0,580.06,165.63Z"/><path class="cls-2" d="M622.72,177.81a14.38,14.38,0,0,1-6-1.18,12.67,12.67,0,0,1-4.46-3.31,14.65,14.65,0,0,1-2.78-5.11,21.5,21.5,0,0,1-1-6.55,27.22,27.22,0,0,1,1.75-9.78,27.75,27.75,0,0,1,4.72-8.12,22.56,22.56,0,0,1,6.9-5.52,17.87,17.87,0,0,1,8.26-2,11.09,11.09,0,0,1,6.29,1.76,8.55,8.55,0,0,1,3.54,5l4.57-21.48h14.55l-8.46,39.6a10.24,10.24,0,0,0-.23,1.83c0,1.27.69,1.93,2.06,2l-2.59,12.19a32.8,32.8,0,0,1-6.17.76,10.62,10.62,0,0,1-5.37-1.22,4.51,4.51,0,0,1-2.1-4.26c0-.26,0-.51,0-.76s.07-.51.12-.77a16.85,16.85,0,0,1-6.36,5.34A17.48,17.48,0,0,1,622.72,177.81Zm6.55-12.18a6.29,6.29,0,0,0,3.43-1,19.48,19.48,0,0,0,3.5-3.09l1.52-7.16a7.87,7.87,0,0,0-1.86-4.3,4.64,4.64,0,0,0-3.55-1.64,6,6,0,0,0-3.12.92,10.43,10.43,0,0,0-2.74,2.39,12.26,12.26,0,0,0-2.67,7.58,7,7,0,0,0,1.41,4.61A5,5,0,0,0,629.27,165.63Z"/><path class="cls-2" d="M674.59,177.81a19.87,19.87,0,0,1-7.09-1.22,15.46,15.46,0,0,1-5.44-3.42,15,15,0,0,1-3.47-5.34,19.14,19.14,0,0,1-1.22-7,22.81,22.81,0,0,1,2.06-9.6,24.85,24.85,0,0,1,5.63-7.85,26.41,26.41,0,0,1,8.42-5.25,28,28,0,0,1,10.32-1.91q7.32,0,11.39,3.09a10.16,10.16,0,0,1,4.07,8.57q0,6.78-6.2,10.2t-18.4,3.43h-2.21c0,2.19.37,3.72,1.11,4.61s2,1.33,3.77,1.33a8.29,8.29,0,0,0,7.46-4.11L696.14,167a21.68,21.68,0,0,1-4.07,4.41,28,28,0,0,1-5.26,3.43,27.52,27.52,0,0,1-6,2.21A26.11,26.11,0,0,1,674.59,177.81Zm6.62-31.3a5.9,5.9,0,0,0-4.07,1.71,12.86,12.86,0,0,0-3.09,4.61h.54a31.44,31.44,0,0,0,8.18-.72c1.55-.49,2.33-1.36,2.33-2.63a2.61,2.61,0,0,0-1.07-2.14A4.48,4.48,0,0,0,681.21,146.51Z"/></svg>