<svg id="Layer_1" data-name="Layer 1" xmlns="http://www.w3.org/2000/svg" viewBox="0 0 1080 1080"><defs><style>.cls-1,.cls-2{fill:#333;}.cls-2{font-size:76.17px;font-family:Raleway-BlackItalic, Raleway;font-weight:800;font-style:italic;}.cls-3{letter-spacing:-0.01em;}.cls-4{letter-spacing:0em;}</style></defs><path class="cls-1" d="M271.46,531a45.65,45.65,0,0,1-10.09,7.61c-9.27,4.88-18.83,4.32-28.39,5.07-15.09,1.18-23.31,18.41-23.31,18.41,1.08-14.16,3.84-29.6,9.85-42.92,7.46-16.52,24.06-25.36,39.19-26a44.46,44.46,0,0,1,16,2.33l-3.16,1.11-3.84,1.66c-1.26.63-2.53,1.24-3.78,1.9l-3.67,2.16c-1.2.78-2.39,1.59-3.57,2.4a64.06,64.06,0,0,0-12.72,12A121,121,0,0,1,257.72,507c1.19-.67,2.38-1.34,3.56-2.05l3.61-1.87c1.23-.55,2.44-1.15,3.65-1.72l3.7-1.52,3.73-1.39,3.77-1.18,3.79-1c1.28-.26,2.55-.55,3.82-.85a96.63,96.63,0,0,1,15.45-1.71,44.94,44.94,0,0,0-15.48-.94c-1.32.16-2.64.34-4,.55l-3.88.8a195,195,0,0,1,18-39.53,624.19,624.19,0,0,1-66.09,3.28c-22.13-.08-42.79-1.33-61.75-3.28a174.7,174.7,0,0,1,8.8,80.93,191.32,191.32,0,0,1-25.56,72.75c22.45-1.63,46.4-2.51,71.69-2.29,19.58.18,38.33,1,56.15,2.29-9.95-29-11.38-53.63-9.68-72.75C271.15,534,271.29,532.49,271.46,531Z"/><path class="cls-1" d="M347,464.61H330a3.4,3.4,0,0,1-3.33-4.09l2.55-12a3.39,3.39,0,0,1,3.32-2.69h56.79a3.39,3.39,0,0,1,3.32,4.09l-2.55,12a3.38,3.38,0,0,1-3.32,2.69H368.54l-12.15,57.06a3.39,3.39,0,0,1-3.32,2.69H338.44a3.39,3.39,0,0,1-3.32-4.1Z"/><path class="cls-1" d="M403.38,443.59h14.07a3.39,3.39,0,0,1,3.32,4.1L415,474.79a26.22,26.22,0,0,1,9.07-7.25,25.42,25.42,0,0,1,11.06-2.48,19,19,0,0,1,6.81,1.05,10,10,0,0,1,6.42,7,19,19,0,0,1,.6,4.76,32.79,32.79,0,0,1-.27,4.2q-.29,2.12-.72,4l-7.51,35.58a3.4,3.4,0,0,1-3.32,2.7H423.07a3.4,3.4,0,0,1-3.32-4.1l6.1-28.65a15.49,15.49,0,0,0,.33-3,5.31,5.31,0,0,0-1.27-4,4.54,4.54,0,0,0-3.26-1.22,5.33,5.33,0,0,0-2.16.61,17.71,17.71,0,0,0-2.71,1.66,18.21,18.21,0,0,0-2.82,2.6,20.62,20.62,0,0,0-2.49,3.43l-6.4,29.95a3.39,3.39,0,0,1-3.32,2.69H387.67a3.39,3.39,0,0,1-3.32-4.1l15.7-74A3.4,3.4,0,0,1,403.38,443.59Z"/><path class="cls-1" d="M474.79,525.46a28.72,28.72,0,0,1-10.29-1.77,22.62,22.62,0,0,1-7.91-5,21.77,21.77,0,0,1-5-7.75,27.8,27.8,0,0,1-1.77-10.18,33.13,33.13,0,0,1,3-13.94A35.81,35.81,0,0,1,461,475.46a38.2,38.2,0,0,1,12.22-7.64,40.7,40.7,0,0,1,15-2.76q10.62,0,16.53,4.48T510.63,482q0,9.86-9,14.83t-26.72,5h-3.21q0,4.75,1.6,6.69t5.48,1.94a11.94,11.94,0,0,0,9.59-4.26,3.32,3.32,0,0,1,3.55-1l9.42,3a3.4,3.4,0,0,1,1.39,5.62,31.47,31.47,0,0,1-2.54,2.33,40.81,40.81,0,0,1-7.64,5,40.39,40.39,0,0,1-8.68,3.21A38.53,38.53,0,0,1,474.79,525.46ZM484.41,480a8.59,8.59,0,0,0-5.92,2.49,18.91,18.91,0,0,0-4.48,6.7h.78q8.52,0,11.89-1.06t3.38-3.81a3.79,3.79,0,0,0-1.55-3.1A6.47,6.47,0,0,0,484.41,480Z"/><path class="cls-1" d="M570.64,445.81h14.73a3.41,3.41,0,0,1,3.38,3l8,71.76a3.39,3.39,0,0,1-3.37,3.77H578.47a3.4,3.4,0,0,1-3.39-3.23L574.47,509H555.66l-6.27,13.42a3.41,3.41,0,0,1-3.08,2H532.13a3.39,3.39,0,0,1-3-5l38.5-71.76A3.4,3.4,0,0,1,570.64,445.81Zm3.5,48.79-.89-24.34L561.86,494.6Z"/><path class="cls-1" d="M616.93,466.16H631a3.4,3.4,0,0,1,3.32,4.11l-10.94,51.4a3.4,3.4,0,0,1-3.32,2.69H606a3.39,3.39,0,0,1-3.32-4.1l10.94-51.41A3.4,3.4,0,0,1,616.93,466.16Zm6.81-22.57h8.91a5.92,5.92,0,0,1,5.79,7.16l-1.24,5.85a5.93,5.93,0,0,1-5.8,4.7h-8.9a5.93,5.93,0,0,1-5.8-7.16l1.25-5.85A5.92,5.92,0,0,1,623.74,443.59Z"/><path class="cls-1" d="M649.81,525.46q-7,0-10.51-3t-3.54-8.79c0-.81,0-1.63.11-2.44a16.32,16.32,0,0,1,.44-2.54l13.26-62.37a3.39,3.39,0,0,1,3.32-2.69H667a3.4,3.4,0,0,1,3.32,4.11l-11.41,53.53a10.22,10.22,0,0,0-.33,2.44q0,4.2,4,4.2a10,10,0,0,0,2.77-.44,14.56,14.56,0,0,0,3-1.22l-.57,13.29a3.37,3.37,0,0,1-2.12,3,48.39,48.39,0,0,1-15.79,2.93Z"/><path class="cls-1" d="M758.21,466.16h12.28a3.4,3.4,0,0,1,3.32,4.13l-1.53,6.94a33.19,33.19,0,0,1,9.24-9,18.79,18.79,0,0,1,10-3.15h1.66a2.3,2.3,0,0,1,.78.11l-3.43,16.3a3.46,3.46,0,0,1-3.23,2.69,39.88,39.88,0,0,0-7.95,1.25,17.4,17.4,0,0,0-7.18,3.68,3.34,3.34,0,0,0-1,1.81l-6.5,30.77a3.41,3.41,0,0,1-3.33,2.69H747.27a3.39,3.39,0,0,1-3.32-4.1l10.94-51.41A3.4,3.4,0,0,1,758.21,466.16Z"/><path class="cls-1" d="M804.59,525.46q-6.65,0-10.13-3.48T791,511.75a36.18,36.18,0,0,1,.88-7.31l7.61-35.59a3.4,3.4,0,0,1,3.32-2.69h14a3.39,3.39,0,0,1,3.32,4.1l-6.21,29.43a15.39,15.39,0,0,0-.33,3q0,5.08,4.2,5.09a10.52,10.52,0,0,0,4.32-1.11,18.2,18.2,0,0,0,5.64-4.86l7.06-32.94a3.39,3.39,0,0,1,3.32-2.69h14.08a3.41,3.41,0,0,1,3.33,4.1L849,501.12a14.38,14.38,0,0,0-.33,2.66c0,1.84,1,2.8,3,2.87l-3.28,15.49a3.46,3.46,0,0,1-2.81,2.65,41.19,41.19,0,0,1-6.74.67,15,15,0,0,1-7.8-1.82q-3-1.83-3-6.25a8.74,8.74,0,0,1,.06-1,10.3,10.3,0,0,1,.16-1.05,30.29,30.29,0,0,1-10.78,7.79A33.39,33.39,0,0,1,804.59,525.46Z"/><path class="cls-1" d="M688.43,525.46q-6.64,0-10.12-3.48t-3.49-10.23a36.27,36.27,0,0,1,.89-7.31l7.61-35.59a3.39,3.39,0,0,1,3.32-2.69h14a3.4,3.4,0,0,1,3.32,4.1l-6.22,29.43a15.39,15.39,0,0,0-.33,3q0,5.08,4.21,5.09a10.45,10.45,0,0,0,4.31-1.11,18.2,18.2,0,0,0,5.64-4.86l7.06-32.94a3.4,3.4,0,0,1,3.32-2.69H736a3.39,3.39,0,0,1,3.32,4.1l-6.55,30.86a14.38,14.38,0,0,0-.33,2.66c0,1.84,1,2.8,3,2.87l-3.29,15.49a3.44,3.44,0,0,1-2.8,2.65,41.29,41.29,0,0,1-6.74.67,14.94,14.94,0,0,1-7.8-1.82q-3-1.83-3.05-6.25a8.74,8.74,0,0,1,.06-1c0-.34.09-.69.16-1.05a30.29,30.29,0,0,1-10.78,7.79A33.35,33.35,0,0,1,688.43,525.46Z"/><path class="cls-1" d="M879.49,525.46A37.86,37.86,0,0,1,865.71,523a25.24,25.24,0,0,1-8.2-5,3.4,3.4,0,0,1-.36-4.58l8-10.31a40,40,0,0,0,8.8,5.65,20,20,0,0,0,8.24,2,4.27,4.27,0,0,0,3.1-.89,3.27,3.27,0,0,0,.89-2.43,3.09,3.09,0,0,0-1.33-2.32,16.77,16.77,0,0,0-4.87-2.33,73.14,73.14,0,0,1-8.08-3.09,30.29,30.29,0,0,1-5.47-3.21,10.9,10.9,0,0,1-3.16-3.65,10.07,10.07,0,0,1-1-4.54,19.93,19.93,0,0,1,2.16-9.13,23.31,23.31,0,0,1,5.91-7.41,29.2,29.2,0,0,1,8.75-5A30.44,30.44,0,0,1,889.66,465,36.17,36.17,0,0,1,901,466.61a23.84,23.84,0,0,1,9.85,6.74l-8.48,10.18a3.42,3.42,0,0,1-4.57.59,41.45,41.45,0,0,0-5.1-3.13,13.21,13.21,0,0,0-6-1.55,4.45,4.45,0,0,0-3,.94,3.22,3.22,0,0,0-1.1,2.6,2.75,2.75,0,0,0,1.49,2.38,25.88,25.88,0,0,0,5.36,2.16q9.63,2.87,13.67,6.3a11.09,11.09,0,0,1,4,8.85,21.57,21.57,0,0,1-2,9.3,20.55,20.55,0,0,1-5.65,7.19,26.61,26.61,0,0,1-8.74,4.64A36.11,36.11,0,0,1,879.49,525.46Z"/><path class="cls-1" d="M332,553.92a3.41,3.41,0,0,1,3.32-2.69h24.32a15,15,0,0,1,7.09,1.63,16.87,16.87,0,0,1,5.28,4.26,19.25,19.25,0,0,1,3.34,6.07,21.91,21.91,0,0,1,1.15,7,23.81,23.81,0,0,1-2.08,9.6,29.5,29.5,0,0,1-13.95,14.64,22.22,22.22,0,0,1-10.1,2.36h-9.46l-3.69,17.51a3.4,3.4,0,0,1-3.32,2.7H322.78a3.39,3.39,0,0,1-3.32-4.1Zm20.5,27.16a3.7,3.7,0,0,0,1.81-.56,5.47,5.47,0,0,0,1.76-1.71,11.35,11.35,0,0,0,1.34-2.92,13.94,13.94,0,0,0,.56-4.17c0-1.79-.33-3-1-3.71a2.77,2.77,0,0,0-2-1h-7.69l-3,14.09Z"/><path class="cls-1" d="M386.3,568.29h9.16a3.4,3.4,0,0,1,3.32,4.12l-1.14,5.15a27.89,27.89,0,0,1,7.74-7.56,15.72,15.72,0,0,1,8.39-2.64h1.39a2.13,2.13,0,0,1,.65.09L413,580.7a3.34,3.34,0,0,1-3,2.68,33.08,33.08,0,0,0-6.43,1,14.13,14.13,0,0,0-6.68,3.71l-5.54,26.23A3.41,3.41,0,0,1,388,617H377.37a3.39,3.39,0,0,1-3.32-4.1L383,571A3.4,3.4,0,0,1,386.3,568.29Z"/><path class="cls-1" d="M434,618a24.14,24.14,0,0,1-9.22-1.62,18.3,18.3,0,0,1-6.53-4.4,17.75,17.75,0,0,1-3.85-6.49,24.25,24.25,0,0,1-1.25-7.78,30.52,30.52,0,0,1,8.43-20.85,30.85,30.85,0,0,1,9.92-6.86,32.31,32.31,0,0,1,13.26-2.6A24.14,24.14,0,0,1,454,569a18.28,18.28,0,0,1,6.53,4.41,17.71,17.71,0,0,1,3.85,6.44,24.15,24.15,0,0,1,1.25,7.83,29.87,29.87,0,0,1-2.18,11.12,29.53,29.53,0,0,1-6.3,9.73,31.52,31.52,0,0,1-10,6.86A32.15,32.15,0,0,1,434,618Zm3.16-14.82a8,8,0,0,0,3.89-1,10.59,10.59,0,0,0,3.24-2.79,13.2,13.2,0,0,0,2.18-4.21,17.51,17.51,0,0,0,.79-5.33,9.26,9.26,0,0,0-1.49-5.56,4.84,4.84,0,0,0-4.17-2,8,8,0,0,0-3.89,1,10.69,10.69,0,0,0-3.24,2.78,13.06,13.06,0,0,0-2.18,4.22,17.17,17.17,0,0,0-.79,5.33A9.36,9.36,0,0,0,433,601.1,4.87,4.87,0,0,0,437.13,603.14Z"/><path class="cls-1" d="M460.63,636.41a18.35,18.35,0,0,1-6.91-1.3,16.42,16.42,0,0,1-2.44-1.24,3.43,3.43,0,0,1-.86-5.07l7.61-9.35a3.83,3.83,0,0,0,3.53,1.85q3,0,4-4L475.35,571a3.39,3.39,0,0,1,3.32-2.69h10.76a3.39,3.39,0,0,1,3.32,4.1l-9.23,43.53a30,30,0,0,1-3.15,8.3,26.4,26.4,0,0,1-5.14,6.49,22,22,0,0,1-6.77,4.21A21.08,21.08,0,0,1,460.63,636.41Zm22.12-87h10.67a3.39,3.39,0,0,1,3.32,4.1l-1.71,8a3.39,3.39,0,0,1-3.32,2.69H481a3.39,3.39,0,0,1-3.32-4.1l1.71-8A3.38,3.38,0,0,1,482.75,549.38Z"/><path class="cls-1" d="M515.22,618a24,24,0,0,1-8.62-1.48,18.91,18.91,0,0,1-6.63-4.17,18.29,18.29,0,0,1-4.22-6.49,23.22,23.22,0,0,1-1.48-8.52,27.88,27.88,0,0,1,2.5-11.68,30.19,30.19,0,0,1,6.86-9.55,32,32,0,0,1,10.24-6.39,33.89,33.89,0,0,1,12.56-2.32q8.9,0,13.86,3.75a12.37,12.37,0,0,1,5,10.43q0,8.25-7.56,12.42t-22.38,4.17h-2.69q0,4,1.34,5.61t4.59,1.62a10.08,10.08,0,0,0,9.08-5l10.74,3.46a2.25,2.25,0,0,1,1,3.64,27.61,27.61,0,0,1-2.87,2.73,33.79,33.79,0,0,1-6.39,4.17,33.3,33.3,0,0,1-7.28,2.69A32.29,32.29,0,0,1,515.22,618Zm8.06-38.09a7.2,7.2,0,0,0-5,2.09,15.72,15.72,0,0,0-3.75,5.61h.65c4.75,0,8.08-.3,10-.89S528,585,528,583.49a3.18,3.18,0,0,0-1.29-2.6A5.41,5.41,0,0,0,523.28,579.87Z"/><path class="cls-1" d="M567.58,618a23.57,23.57,0,0,1-9.22-1.66,19,19,0,0,1-6.54-4.45,18.35,18.35,0,0,1-3.89-6.49,23.81,23.81,0,0,1-1.3-7.88,29,29,0,0,1,2.23-11.07,29.41,29.41,0,0,1,6.39-9.64,32.59,32.59,0,0,1,10-6.81,31.84,31.84,0,0,1,13.07-2.6q8.63,0,13.53,3.71a17.89,17.89,0,0,1,5.73,7.17,2.2,2.2,0,0,1-1.39,3l-16,4.56a5.19,5.19,0,0,0-5.09-3.62,7.83,7.83,0,0,0-3.76,1,10.82,10.82,0,0,0-3.24,2.74,13.46,13.46,0,0,0-2.27,4.21,16.72,16.72,0,0,0-.84,5.43,9.08,9.08,0,0,0,1.53,5.56,4.91,4.91,0,0,0,4.13,2q3.52,0,6.58-3.62l13,4.23a2.19,2.19,0,0,1,.93,3.55,33.4,33.4,0,0,1-8.61,7A29.72,29.72,0,0,1,567.58,618Z"/><path class="cls-1" d="M613.46,618.06a20,20,0,0,1-4.64-.51,10.07,10.07,0,0,1-3.75-1.72,8,8,0,0,1-2.5-3.06,10.71,10.71,0,0,1-.88-4.63q0-1,.09-2a17.1,17.1,0,0,1,.37-2.22l4.73-22.34h-3.64a1.62,1.62,0,0,1-1.59-2l2.17-10a1.62,1.62,0,0,1,1.59-1.28h4.34l2.67-12.6a3.41,3.41,0,0,1,3.32-2.7h10.67a3.39,3.39,0,0,1,3.32,4.1l-2.37,11.2h6.9a1.62,1.62,0,0,1,1.59,2l-2.1,10a1.63,1.63,0,0,1-1.59,1.29h-7.67l-3.43,16.13c-.06.31-.11.6-.14.88a7.43,7.43,0,0,0,0,.78c0,1.8.93,2.69,2.78,2.69a12.28,12.28,0,0,0,2.83-.41,27.83,27.83,0,0,0,3.57-1.16V612a3.38,3.38,0,0,1-2.24,3.2c-2,.7-4.06,1.3-6.15,1.82A34.22,34.22,0,0,1,613.46,618.06Z"/><text class="cls-2" transform="translate(687.91 615.37)"><tspan class="cls-3">T</tspan><tspan x="45.09" y="0">ra</tspan><tspan class="cls-4" x="125.37" y="0">d</tspan><tspan x="174.19" y="0">e</tspan></text></svg>